<?xml version="1.0" encoding="UTF-8"?>
<!DOCTYPE svg PUBLIC "-//W3C//DTD SVG 1.1//EN" "http://www.w3.org/Graphics/SVG/1.1/DTD/svg11.dtd">
<svg xmlns="http://www.w3.org/2000/svg" version="1.1" width="831px" height="263px" style="shape-rendering:geometricPrecision; text-rendering:geometricPrecision; image-rendering:optimizeQuality; fill-rule:evenodd; clip-rule:evenodd" xmlns:xlink="http://www.w3.org/1999/xlink">
<g><path style="opacity:0.982" fill="#1b1b1d" d="M 294.5,48.5 C 295.08,50.7488 296.413,52.4154 298.5,53.5C 299.167,53.5 299.5,53.8333 299.5,54.5C 299.427,56.0269 300.094,57.0269 301.5,57.5C 301.427,59.0269 302.094,60.0269 303.5,60.5C 306.9,65.307 309.234,70.6403 310.5,76.5C 310.294,79.4951 310.96,82.1617 312.5,84.5C 312.5,84.8333 312.5,85.1667 312.5,85.5C 311.587,91.7965 311.587,98.1298 312.5,104.5C 311.998,110.948 310.998,117.615 309.5,124.5C 307.192,133.129 302.859,140.462 296.5,146.5C 294.167,148.167 292.167,150.167 290.5,152.5C 290.167,153.5 289.5,154.167 288.5,154.5C 286.973,154.427 285.973,155.094 285.5,156.5C 274.279,164.069 261.779,167.736 248,167.5C 235.501,167.841 224.001,164.841 213.5,158.5C 213.027,157.094 212.027,156.427 210.5,156.5C 210.027,155.094 209.027,154.427 207.5,154.5C 206.089,152.086 204.089,150.419 201.5,149.5C 200.5,149.167 199.833,148.5 199.5,147.5C 199.573,145.973 198.906,144.973 197.5,144.5C 191.773,139.052 188.106,132.386 186.5,124.5C 186.405,122.214 185.738,120.214 184.5,118.5C 181.026,107.007 180.692,95.3404 183.5,83.5C 184.924,81.4855 185.59,79.1522 185.5,76.5C 186.065,72.4632 187.399,68.7966 189.5,65.5C 190.906,65.0269 191.573,64.0269 191.5,62.5C 191.328,61.5084 191.662,60.8417 192.5,60.5C 193.906,60.0269 194.573,59.0269 194.5,57.5C 195.906,57.0269 196.573,56.0269 196.5,54.5C 198.587,53.4154 199.92,51.7488 200.5,49.5C 203.089,48.5806 205.089,46.914 206.5,44.5C 218.408,34.5856 232.241,29.9189 248,30.5C 266.055,30.2912 281.555,36.2912 294.5,48.5 Z M 285.5,76.5 C 285.402,78.5529 286.069,80.2196 287.5,81.5C 289.214,90.3989 289.881,99.3989 289.5,108.5C 288.232,110.905 287.565,113.572 287.5,116.5C 286.069,117.78 285.402,119.447 285.5,121.5C 283.896,122.287 283.229,123.62 283.5,125.5C 282.094,125.973 281.427,126.973 281.5,128.5C 280.094,128.973 279.427,129.973 279.5,131.5C 264.958,145.048 248.292,148.215 229.5,141C 224.782,138.313 220.449,135.146 216.5,131.5C 216.573,129.973 215.906,128.973 214.5,128.5C 214.573,126.973 213.906,125.973 212.5,125.5C 212.34,123.847 211.674,122.514 210.5,121.5C 210.598,119.447 209.931,117.78 208.5,116.5C 208.435,113.572 207.768,110.905 206.5,108.5C 206.354,100.804 206.687,93.1377 207.5,85.5C 208.738,83.7857 209.405,81.7857 209.5,79.5C 211.008,77.8185 212.008,75.8185 212.5,73.5C 223.887,56.0827 239.887,49.9161 260.5,55C 272.129,58.4712 280.463,65.6379 285.5,76.5 Z"/></g>
<g><path style="opacity:0.979" fill="#1b1b1c" d="M 814.5,44.5 C 814.427,46.0269 815.094,47.0269 816.5,47.5C 816.427,49.0269 817.094,50.0269 818.5,50.5C 821.208,53.9555 822.541,57.9555 822.5,62.5C 822.5,64.5 822.5,66.5 822.5,68.5C 815.167,68.5 807.833,68.5 800.5,68.5C 800.768,66.901 800.434,65.5676 799.5,64.5C 799.771,62.6203 799.104,61.287 797.5,60.5C 789.49,52.857 780.49,51.6903 770.5,57C 760.896,66.7467 761.23,76.0801 771.5,85C 781.245,86.5837 790.912,88.5837 800.5,91C 805.917,93.5943 810.583,97.0943 814.5,101.5C 814.427,103.027 815.094,104.027 816.5,104.5C 821.915,111.472 824.248,119.472 823.5,128.5C 822.761,128.369 822.094,128.536 821.5,129C 822.451,132.057 822.784,135.223 822.5,138.5C 822.128,142.297 820.794,145.63 818.5,148.5C 817.094,148.973 816.427,149.973 816.5,151.5C 816.5,152.167 816.167,152.5 815.5,152.5C 813.833,153.5 812.5,154.833 811.5,156.5C 810.5,156.833 809.833,157.5 809.5,158.5C 796.593,167.61 782.427,169.944 767,165.5C 762.09,164.3 757.923,161.967 754.5,158.5C 754.027,157.094 753.027,156.427 751.5,156.5C 750.167,155.833 749.167,154.833 748.5,153.5C 748.573,151.973 747.906,150.973 746.5,150.5C 747.491,148.877 746.824,147.877 744.5,147.5C 743.662,147.158 743.328,146.492 743.5,145.5C 741.858,139.956 740.858,134.29 740.5,128.5C 748.253,128.201 755.92,128.534 763.5,129.5C 764.167,131.833 764.833,134.167 765.5,136.5C 765.833,138.833 767.167,140.167 769.5,140.5C 780.013,146.498 789.513,145.165 798,136.5C 801.743,127.206 799.576,119.372 791.5,113C 783.634,110.847 775.634,109.181 767.5,108C 763.22,107.179 759.553,105.346 756.5,102.5C 756.027,101.094 755.027,100.427 753.5,100.5C 751.833,99.5 750.5,98.1667 749.5,96.5C 749.167,95.5 748.5,94.8333 747.5,94.5C 746.026,93.5637 745.026,92.2303 744.5,90.5C 744.414,89.5041 744.748,88.6708 745.5,88C 744.309,87.3021 743.309,86.4687 742.5,85.5C 739.833,75.8333 739.833,66.1667 742.5,56.5C 742.402,54.4471 743.069,52.7804 744.5,51.5C 745.906,51.0269 746.573,50.0269 746.5,48.5C 748.262,47.7377 749.262,46.4044 749.5,44.5C 750.5,42.8333 751.833,41.5 753.5,40.5C 755.027,40.573 756.027,39.9063 756.5,38.5C 761.118,34.6935 766.451,32.1935 772.5,31C 789.142,27.8265 803.142,32.3265 814.5,44.5 Z"/></g>
<g><path style="opacity:0.004" fill="#000000" d="M 478.5,32.5 C 477.833,31.1667 477.833,31.1667 478.5,32.5 Z"/></g>
<g><path style="opacity:0.009" fill="#020202" d="M 597.5,32.5 C 571.833,32.5 546.167,32.5 520.5,32.5C 520.5,39.5 520.5,46.5 520.5,53.5C 519.508,46.3524 519.175,39.0191 519.5,31.5C 545.672,31.1689 571.672,31.5022 597.5,32.5 Z"/></g>
<g><path style="opacity:0.978" fill="#1b1b1c" d="M 43.5,44.5 C 43.427,46.0269 44.0937,47.0269 45.5,47.5C 58.7758,74.3845 71.7758,101.384 84.5,128.5C 84.9617,130.757 85.9617,132.757 87.5,134.5C 88.2975,134.043 88.6309,133.376 88.5,132.5C 94.2288,119.376 100.229,106.376 106.5,93.5C 109.29,89.5844 111.29,85.251 112.5,80.5C 113.659,76.8487 115.326,73.5154 117.5,70.5C 119.293,68.5739 120.293,66.2406 120.5,63.5C 121.326,60.5152 122.659,57.8485 124.5,55.5C 125.931,54.2196 126.598,52.5529 126.5,50.5C 129.088,44.1561 132.088,37.9894 135.5,32C 143.413,31.1859 151.246,31.3526 159,32.5C 159.5,76.8321 159.667,121.165 159.5,165.5C 151.833,165.5 144.167,165.5 136.5,165.5C 136.833,139.158 136.5,112.825 135.5,86.5C 134.702,86.9569 134.369,87.6236 134.5,88.5C 122.845,113.812 111.178,139.145 99.5,164.5C 91.855,165.665 84.1883,165.831 76.5,165C 72.7552,158.344 69.4218,151.511 66.5,144.5C 64.6218,138.413 61.9552,132.746 58.5,127.5C 51.77,114.748 45.4367,101.748 39.5,88.5C 39.4431,87.391 39.1098,86.391 38.5,85.5C 38.2172,84.7109 37.7172,84.0442 37,83.5C 36.5,110.831 36.3334,138.165 36.5,165.5C 28.8333,165.5 21.1667,165.5 13.5,165.5C 13.3333,121.165 13.5,76.8321 14,32.5C 21.7538,31.3526 29.5872,31.1859 37.5,32C 40.4471,35.7271 42.4471,39.8937 43.5,44.5 Z"/></g>
<g><path style="opacity:0.981" fill="#1b1b1c" d="M 367.5,41.5 C 367.427,43.0269 368.094,44.0269 369.5,44.5C 370.167,44.5 370.5,44.8333 370.5,45.5C 370.427,47.0269 371.094,48.0269 372.5,48.5C 372.427,50.0269 373.094,51.0269 374.5,51.5C 374.738,53.4044 375.738,54.7377 377.5,55.5C 377.427,57.0269 378.094,58.0269 379.5,58.5C 379.427,60.0269 380.094,61.0269 381.5,61.5C 381.427,63.0269 382.094,64.0269 383.5,64.5C 383.427,66.0269 384.094,67.0269 385.5,67.5C 386.167,67.5 386.5,67.8333 386.5,68.5C 386.427,70.0269 387.094,71.0269 388.5,71.5C 388.427,73.0269 389.094,74.0269 390.5,74.5C 390.427,76.0269 391.094,77.0269 392.5,77.5C 399.523,86.5315 406.189,95.8649 412.5,105.5C 412.427,107.027 413.094,108.027 414.5,108.5C 414.427,110.027 415.094,111.027 416.5,111.5C 417.167,111.5 417.5,111.833 417.5,112.5C 417.427,114.027 418.094,115.027 419.5,115.5C 419.427,117.027 420.094,118.027 421.5,118.5C 421.427,120.027 422.094,121.027 423.5,121.5C 424.167,121.5 424.5,121.833 424.5,122.5C 424.987,123.473 425.487,124.473 426,125.5C 426.5,94.8351 426.667,64.1685 426.5,33.5C 426.5,33.1667 426.5,32.8333 426.5,32.5C 434.334,32.342 442.001,32.342 449.5,32.5C 449.5,76.8333 449.5,121.167 449.5,165.5C 441.493,165.666 433.493,165.5 425.5,165C 423.28,162.287 421.28,159.454 419.5,156.5C 419.573,154.973 418.906,153.973 417.5,153.5C 417.446,151.368 416.446,150.035 414.5,149.5C 412.808,147.795 411.475,145.795 410.5,143.5C 410.573,141.973 409.906,140.973 408.5,140.5C 408.573,138.973 407.906,137.973 406.5,137.5C 406.573,135.973 405.906,134.973 404.5,134.5C 390.118,114.782 376.118,94.7817 362.5,74.5C 362.631,73.6236 362.298,72.9569 361.5,72.5C 360.5,103.493 360.167,134.493 360.5,165.5C 352.833,165.5 345.167,165.5 337.5,165.5C 337.333,121.165 337.5,76.8321 338,32.5C 345.42,31.3534 352.92,31.1868 360.5,32C 363.441,34.7134 365.774,37.8801 367.5,41.5 Z"/></g>
<g><path style="opacity:0.004" fill="#000000" d="M 426.5,32.5 C 425.833,31.1667 425.833,31.1667 426.5,32.5 Z"/></g>
<g><path style="opacity:0.98" fill="#1a1b1c" d="M 478.5,32.5 C 486.516,32.3486 494.516,32.3486 502.5,32.5C 502.5,76.8333 502.5,121.167 502.5,165.5C 494.5,165.5 486.5,165.5 478.5,165.5C 478.5,121.167 478.5,76.8333 478.5,32.5 Z"/></g>
<g><path style="opacity:0.975" fill="#1b1b1d" d="M 597.5,32.5 C 598.222,32.9175 598.722,33.5842 599,34.5C 599.5,40.8246 599.666,47.1579 599.5,53.5C 589.833,53.5 580.167,53.5 570.5,53.5C 570.5,90.8333 570.5,128.167 570.5,165.5C 562.833,165.5 555.167,165.5 547.5,165.5C 547.5,128.167 547.5,90.8333 547.5,53.5C 538.5,53.5 529.5,53.5 520.5,53.5C 520.5,46.5 520.5,39.5 520.5,32.5C 546.167,32.5 571.833,32.5 597.5,32.5 Z"/></g>
<g><path style="opacity:0.982" fill="#1a1a1c" d="M 641.5,132.5 C 641.427,134.027 642.094,135.027 643.5,135.5C 654.656,144.692 666.99,146.525 680.5,141C 684.3,139.358 687.3,136.858 689.5,133.5C 691.104,132.713 691.771,131.38 691.5,129.5C 692.268,128.737 692.768,127.737 693,126.5C 693.5,95.1684 693.667,63.8351 693.5,32.5C 700.902,31.1729 708.402,31.1729 716,32.5C 716.825,65.2382 716.659,97.9049 715.5,130.5C 714.232,132.905 713.565,135.572 713.5,138.5C 712.695,143.45 710.362,147.45 706.5,150.5C 705.094,150.973 704.427,151.973 704.5,153.5C 704.5,154.167 704.167,154.5 703.5,154.5C 701.973,154.427 700.973,155.094 700.5,156.5C 690.437,164.241 678.937,167.908 666,167.5C 654.368,168.006 643.868,165.006 634.5,158.5C 634.027,157.094 633.027,156.427 631.5,156.5C 622.743,149.662 617.576,140.662 616,129.5C 615.333,97.1667 615.333,64.8333 616,32.5C 623.667,31.1667 631.333,31.1667 639,32.5C 639.333,64.1667 639.667,95.8333 640,127.5C 640.608,129.154 641.108,130.821 641.5,132.5 Z"/></g>
<g><path style="opacity:0.171" fill="#0a0a0a" d="M 693.5,32.5 C 693.667,63.8351 693.5,95.1684 693,126.5C 692.768,127.737 692.268,128.737 691.5,129.5C 692.138,97.0201 692.805,64.6868 693.5,32.5 Z"/></g>
<g><path style="opacity:0.025" fill="#010101" d="M 426.5,33.5 C 426.667,64.1685 426.5,94.8351 426,125.5C 425.487,124.473 424.987,123.473 424.5,122.5C 425.167,92.8333 425.833,63.1667 426.5,33.5 Z"/></g>
<g><path style="opacity:0.4" fill="#0f0f0f" d="M 756.5,38.5 C 756.027,39.9063 755.027,40.573 753.5,40.5C 753.973,39.0937 754.973,38.427 756.5,38.5 Z"/></g>
<g><path style="opacity:0.29" fill="#0f0f0f" d="M 367.5,41.5 C 368.906,41.9731 369.573,42.9731 369.5,44.5C 368.094,44.0269 367.427,43.0269 367.5,41.5 Z"/></g>
<g><path style="opacity:0.027" fill="#050606" d="M 43.5,44.5 C 44.9063,44.9731 45.573,45.9731 45.5,47.5C 44.0937,47.0269 43.427,46.0269 43.5,44.5 Z"/></g>
<g><path style="opacity:0.239" fill="#0b0b0b" d="M 749.5,44.5 C 749.262,46.4044 748.262,47.7377 746.5,48.5C 746.738,46.5956 747.738,45.2623 749.5,44.5 Z"/></g>
<g><path style="opacity:0.294" fill="#0e0e0e" d="M 814.5,44.5 C 815.906,44.9731 816.573,45.9731 816.5,47.5C 815.094,47.0269 814.427,46.0269 814.5,44.5 Z"/></g>
<g><path style="opacity:0.443" fill="#0f1010" d="M 206.5,44.5 C 205.089,46.914 203.089,48.5806 200.5,49.5C 201.911,47.086 203.911,45.4194 206.5,44.5 Z"/></g>
<g><path style="opacity:0.188" fill="#0a0a0a" d="M 370.5,45.5 C 371.906,45.9731 372.573,46.9731 372.5,48.5C 371.094,48.0269 370.427,47.0269 370.5,45.5 Z"/></g>
<g><path style="opacity:0.412" fill="#0c0c0c" d="M 294.5,48.5 C 296.587,49.5846 297.92,51.2512 298.5,53.5C 296.413,52.4154 295.08,50.7488 294.5,48.5 Z"/></g>
<g><path style="opacity:0.243" fill="#070707" d="M 746.5,48.5 C 746.573,50.0269 745.906,51.0269 744.5,51.5C 743.509,49.8773 744.176,48.8773 746.5,48.5 Z"/></g>
<g><path style="opacity:0.227" fill="#0d0d0e" d="M 816.5,47.5 C 817.906,47.9731 818.573,48.9731 818.5,50.5C 817.094,50.0269 816.427,49.0269 816.5,47.5 Z"/></g>
<g><path style="opacity:0.231" fill="#0c0c0c" d="M 372.5,48.5 C 373.906,48.9731 374.573,49.9731 374.5,51.5C 373.094,51.0269 372.427,50.0269 372.5,48.5 Z"/></g>
<g><path style="opacity:0.051" fill="#070707" d="M 126.5,50.5 C 126.598,52.5529 125.931,54.2196 124.5,55.5C 124.402,53.4471 125.069,51.7804 126.5,50.5 Z"/></g>
<g><path style="opacity:0.137" fill="#090909" d="M 200.5,49.5 C 199.92,51.7488 198.587,53.4154 196.5,54.5C 197.08,52.2512 198.413,50.5846 200.5,49.5 Z"/></g>
<g><path style="opacity:0.255" fill="#0c0c0c" d="M 374.5,51.5 C 376.262,52.2623 377.262,53.5956 377.5,55.5C 375.738,54.7377 374.738,53.4044 374.5,51.5 Z"/></g>
<g><path style="opacity:0.247" fill="#0d0d0d" d="M 196.5,54.5 C 196.573,56.0269 195.906,57.0269 194.5,57.5C 194.427,55.9731 195.094,54.9731 196.5,54.5 Z"/></g>
<g><path style="opacity:0.196" fill="#0b0b0b" d="M 299.5,54.5 C 300.906,54.9731 301.573,55.9731 301.5,57.5C 300.094,57.0269 299.427,56.0269 299.5,54.5 Z"/></g>
<g><path style="opacity:0.176" fill="#09090a" d="M 377.5,55.5 C 378.906,55.9731 379.573,56.9731 379.5,58.5C 378.094,58.0269 377.427,57.0269 377.5,55.5 Z"/></g>
<g><path style="opacity:0.235" fill="#0d0e0e" d="M 194.5,57.5 C 194.573,59.0269 193.906,60.0269 192.5,60.5C 192.427,58.9731 193.094,57.9731 194.5,57.5 Z"/></g>
<g><path style="opacity:0.173" fill="#0b0b0b" d="M 301.5,57.5 C 302.906,57.9731 303.573,58.9731 303.5,60.5C 302.094,60.0269 301.427,59.0269 301.5,57.5 Z"/></g>
<g><path style="opacity:0.208" fill="#0b0b0c" d="M 379.5,58.5 C 380.906,58.9731 381.573,59.9731 381.5,61.5C 380.094,61.0269 379.427,60.0269 379.5,58.5 Z"/></g>
<g><path style="opacity:0.039" fill="#050505" d="M 797.5,60.5 C 799.104,61.287 799.771,62.6203 799.5,64.5C 798.326,63.4863 797.66,62.153 797.5,60.5 Z"/></g>
<g><path style="opacity:0.216" fill="#0c0c0c" d="M 381.5,61.5 C 382.906,61.9731 383.573,62.9731 383.5,64.5C 382.094,64.0269 381.427,63.0269 381.5,61.5 Z"/></g>
<g><path style="opacity:0.153" fill="#0b0b0b" d="M 191.5,62.5 C 191.573,64.0269 190.906,65.0269 189.5,65.5C 189.427,63.9731 190.094,62.9731 191.5,62.5 Z"/></g>
<g><path style="opacity:0.049" fill="#070707" d="M 120.5,63.5 C 120.293,66.2406 119.293,68.5739 117.5,70.5C 117.707,67.7594 118.707,65.4261 120.5,63.5 Z"/></g>
<g><path style="opacity:0.239" fill="#0d0d0d" d="M 383.5,64.5 C 384.906,64.9731 385.573,65.9731 385.5,67.5C 384.094,67.0269 383.427,66.0269 383.5,64.5 Z"/></g>
<g><path style="opacity:0.411" fill="#121213" d="M 822.5,62.5 C 823.468,64.6074 823.802,66.9407 823.5,69.5C 815.5,69.5 807.5,69.5 799.5,69.5C 799.5,67.8333 799.5,66.1667 799.5,64.5C 800.434,65.5676 800.768,66.901 800.5,68.5C 807.833,68.5 815.167,68.5 822.5,68.5C 822.5,66.5 822.5,64.5 822.5,62.5 Z"/></g>
<g><path style="opacity:0.165" fill="#0a0a0a" d="M 386.5,68.5 C 387.906,68.9731 388.573,69.9731 388.5,71.5C 387.094,71.0269 386.427,70.0269 386.5,68.5 Z"/></g>
<g><path style="opacity:0.05" fill="#050505" d="M 742.5,56.5 C 739.833,66.1667 739.833,75.8333 742.5,85.5C 741.778,85.0825 741.278,84.4158 741,83.5C 739,75.1667 739,66.8333 741,58.5C 741.278,57.5842 741.778,56.9175 742.5,56.5 Z"/></g>
<g><path style="opacity:0.004" fill="#000000" d="M 821.5,70.5 C 822.833,71.1667 822.833,71.1667 821.5,70.5 Z"/></g>
<g><path style="opacity:0.212" fill="#0c0c0c" d="M 388.5,71.5 C 389.906,71.9731 390.573,72.9731 390.5,74.5C 389.094,74.0269 388.427,73.0269 388.5,71.5 Z"/></g>
<g><path style="opacity:0.037" fill="#050505" d="M 212.5,73.5 C 212.008,75.8185 211.008,77.8185 209.5,79.5C 209.461,76.911 210.461,74.911 212.5,73.5 Z"/></g>
<g><path style="opacity:0.278" fill="#0e0f0f" d="M 390.5,74.5 C 391.906,74.9731 392.573,75.9731 392.5,77.5C 391.094,77.0269 390.427,76.0269 390.5,74.5 Z"/></g>
<g><path style="opacity:0.106" fill="#070707" d="M 285.5,76.5 C 286.931,77.7804 287.598,79.4471 287.5,81.5C 286.069,80.2196 285.402,78.5529 285.5,76.5 Z"/></g>
<g><path style="opacity:0.271" fill="#0d0d0d" d="M 185.5,76.5 C 185.59,79.1522 184.924,81.4855 183.5,83.5C 183.41,80.8478 184.076,78.5145 185.5,76.5 Z"/></g>
<g><path style="opacity:0.161" fill="#080909" d="M 209.5,79.5 C 209.405,81.7857 208.738,83.7857 207.5,85.5C 207.259,83.1016 207.926,81.1016 209.5,79.5 Z"/></g>
<g><path style="opacity:0.369" fill="#141414" d="M 38.5,85.5 C 37.5021,111.995 37.1688,138.661 37.5,165.5C 37.1667,165.5 36.8333,165.5 36.5,165.5C 36.3334,138.165 36.5,110.831 37,83.5C 37.7172,84.0442 38.2172,84.7109 38.5,85.5 Z"/></g>
<g><path style="opacity:0.267" fill="#0d0d0d" d="M 310.5,76.5 C 311.768,78.9052 312.435,81.5718 312.5,84.5C 310.96,82.1617 310.294,79.4951 310.5,76.5 Z"/></g>
<g><path style="opacity:0.015" fill="#010101" d="M 38.5,85.5 C 39.1098,86.391 39.4431,87.391 39.5,88.5C 38.8333,114.167 38.1667,139.833 37.5,165.5C 37.1688,138.661 37.5021,111.995 38.5,85.5 Z"/></g>
<g><path style="opacity:0.012" fill="#030303" d="M 112.5,80.5 C 111.29,85.251 109.29,89.5844 106.5,93.5C 107.71,88.749 109.71,84.4156 112.5,80.5 Z"/></g>
<g><path style="opacity:0.428" fill="#161717" d="M 136.5,165.5 C 135.833,139.833 135.167,114.167 134.5,88.5C 134.369,87.6236 134.702,86.9569 135.5,86.5C 136.5,112.825 136.833,139.158 136.5,165.5 Z"/></g>
<g><path style="opacity:0.941" fill="#0e0e0f" d="M 742.5,85.5 C 743.309,86.4687 744.309,87.3021 745.5,88C 744.748,88.6708 744.414,89.5041 744.5,90.5C 743.069,89.2196 742.402,87.5529 742.5,85.5 Z"/></g>
<g><path style="opacity:0.417" fill="#111111" d="M 312.5,85.5 C 314.223,91.6689 314.556,98.0022 313.5,104.5C 313.167,104.5 312.833,104.5 312.5,104.5C 311.587,98.1298 311.587,91.7965 312.5,85.5 Z"/></g>
<g><path style="opacity:0.061" fill="#050505" d="M 287.5,81.5 C 288.776,83.5625 289.61,85.8958 290,88.5C 290.821,95.3464 290.654,102.013 289.5,108.5C 289.881,99.3989 289.214,90.3989 287.5,81.5 Z"/></g>
<g><path style="opacity:0.004" fill="#000000" d="M 362.5,95.5 C 363.833,96.1667 363.833,96.1667 362.5,95.5 Z"/></g>
<g><path style="opacity:0.004" fill="#050505" d="M 747.5,94.5 C 748.5,94.8333 749.167,95.5 749.5,96.5C 748.167,96.5 747.5,95.8333 747.5,94.5 Z"/></g>
<g><path style="opacity:0.224" fill="#0d0d0d" d="M 753.5,100.5 C 755.027,100.427 756.027,101.094 756.5,102.5C 754.973,102.573 753.973,101.906 753.5,100.5 Z"/></g>
<g><path style="opacity:0.302" fill="#0f0f0f" d="M 814.5,101.5 C 815.906,101.973 816.573,102.973 816.5,104.5C 815.094,104.027 814.427,103.027 814.5,101.5 Z"/></g>
<g><path style="opacity:0.303" fill="#0d0d0d" d="M 312.5,104.5 C 312.833,104.5 313.167,104.5 313.5,104.5C 313.554,111.562 312.221,118.229 309.5,124.5C 310.998,117.615 311.998,110.948 312.5,104.5 Z"/></g>
<g><path style="opacity:0.212" fill="#0b0c0c" d="M 412.5,105.5 C 413.906,105.973 414.573,106.973 414.5,108.5C 413.094,108.027 412.427,107.027 412.5,105.5 Z"/></g>
<g><path style="opacity:0.275" fill="#0e0e0f" d="M 414.5,108.5 C 415.906,108.973 416.573,109.973 416.5,111.5C 415.094,111.027 414.427,110.027 414.5,108.5 Z"/></g>
<g><path style="opacity:0.031" fill="#070707" d="M 206.5,108.5 C 207.768,110.905 208.435,113.572 208.5,116.5C 206.96,114.162 206.294,111.495 206.5,108.5 Z"/></g>
<g><path style="opacity:0.031" fill="#060606" d="M 289.5,108.5 C 289.706,111.495 289.04,114.162 287.5,116.5C 287.565,113.572 288.232,110.905 289.5,108.5 Z"/></g>
<g><path style="opacity:0.173" fill="#0a0a0a" d="M 417.5,112.5 C 418.906,112.973 419.573,113.973 419.5,115.5C 418.094,115.027 417.427,114.027 417.5,112.5 Z"/></g>
<g><path style="opacity:0.212" fill="#0b0b0c" d="M 419.5,115.5 C 420.906,115.973 421.573,116.973 421.5,118.5C 420.094,118.027 419.427,117.027 419.5,115.5 Z"/></g>
<g><path style="opacity:0.029" fill="#050505" d="M 208.5,116.5 C 209.931,117.78 210.598,119.447 210.5,121.5C 209.069,120.22 208.402,118.553 208.5,116.5 Z"/></g>
<g><path style="opacity:0.031" fill="#060606" d="M 287.5,116.5 C 287.598,118.553 286.931,120.22 285.5,121.5C 285.402,119.447 286.069,117.78 287.5,116.5 Z"/></g>
<g><path style="opacity:0.045" fill="#090909" d="M 184.5,118.5 C 185.738,120.214 186.405,122.214 186.5,124.5C 184.926,122.898 184.259,120.898 184.5,118.5 Z"/></g>
<g><path style="opacity:0.275" fill="#0e0f0f" d="M 421.5,118.5 C 422.906,118.973 423.573,119.973 423.5,121.5C 422.094,121.027 421.427,120.027 421.5,118.5 Z"/></g>
<g><path style="opacity:0.18" fill="#060606" d="M 285.5,121.5 C 285.34,123.153 284.674,124.486 283.5,125.5C 283.229,123.62 283.896,122.287 285.5,121.5 Z"/></g>
<g><path style="opacity:0.165" fill="#0a0a0a" d="M 212.5,125.5 C 213.906,125.973 214.573,126.973 214.5,128.5C 213.094,128.027 212.427,127.027 212.5,125.5 Z"/></g>
<g><path style="opacity:0.192" fill="#0b0b0b" d="M 283.5,125.5 C 283.573,127.027 282.906,128.027 281.5,128.5C 281.427,126.973 282.094,125.973 283.5,125.5 Z"/></g>
<g><path style="opacity:0.408" fill="#0e0e0e" d="M 214.5,128.5 C 215.906,128.973 216.573,129.973 216.5,131.5C 215.094,131.027 214.427,130.027 214.5,128.5 Z"/></g>
<g><path style="opacity:0.455" fill="#101010" d="M 281.5,128.5 C 281.573,130.027 280.906,131.027 279.5,131.5C 279.427,129.973 280.094,128.973 281.5,128.5 Z"/></g>
<g><path style="opacity:0.106" fill="#0a0a0a" d="M 84.5,128.5 C 85.8333,129.833 87.1667,131.167 88.5,132.5C 88.6309,133.376 88.2975,134.043 87.5,134.5C 85.9617,132.757 84.9617,130.757 84.5,128.5 Z"/></g>
<g><path style="opacity:0.405" fill="#121212" d="M 823.5,128.5 C 823.813,132.042 823.479,135.375 822.5,138.5C 822.784,135.223 822.451,132.057 821.5,129C 822.094,128.536 822.761,128.369 823.5,128.5 Z"/></g>
<g><path style="opacity:0.129" fill="#080808" d="M 691.5,129.5 C 691.771,131.38 691.104,132.713 689.5,133.5C 689.66,131.847 690.326,130.514 691.5,129.5 Z"/></g>
<g><path style="opacity:0.031" fill="#080808" d="M 715.5,130.5 C 715.706,133.495 715.04,136.162 713.5,138.5C 713.565,135.572 714.232,132.905 715.5,130.5 Z"/></g>
<g><path style="opacity:0.278" fill="#0f0f0f" d="M 641.5,132.5 C 642.906,132.973 643.573,133.973 643.5,135.5C 642.094,135.027 641.427,134.027 641.5,132.5 Z"/></g>
<g><path style="opacity:0.012" fill="#070707" d="M 404.5,134.5 C 405.906,134.973 406.573,135.973 406.5,137.5C 405.094,137.027 404.427,136.027 404.5,134.5 Z"/></g>
<g><path style="opacity:0.11" fill="#080909" d="M 58.5,127.5 C 61.9552,132.746 64.6218,138.413 66.5,144.5C 63.0448,139.254 60.3782,133.587 58.5,127.5 Z"/></g>
<g><path style="opacity:0.443" fill="#0d0d0e" d="M 765.5,136.5 C 767.167,137.5 768.5,138.833 769.5,140.5C 767.167,140.167 765.833,138.833 765.5,136.5 Z"/></g>
<g><path style="opacity:0.012" fill="#060606" d="M 406.5,137.5 C 407.906,137.973 408.573,138.973 408.5,140.5C 407.094,140.027 406.427,139.027 406.5,137.5 Z"/></g>
<g><path style="opacity:0.043" fill="#070807" d="M 763.5,129.5 C 755.92,128.534 748.253,128.201 740.5,128.5C 740.858,134.29 741.858,139.956 743.5,145.5C 740.529,139.99 739.195,133.99 739.5,127.5C 747.903,126.866 755.903,127.533 763.5,129.5 Z"/></g>
<g><path style="opacity:0.004" fill="#050505" d="M 408.5,140.5 C 409.906,140.973 410.573,141.973 410.5,143.5C 409.094,143.027 408.427,142.027 408.5,140.5 Z"/></g>
<g><path style="opacity:0.327" fill="#121212" d="M 362.5,74.5 C 361.833,104.833 361.167,135.167 360.5,165.5C 360.167,134.493 360.5,103.493 361.5,72.5C 362.298,72.9569 362.631,73.6236 362.5,74.5 Z"/></g>
<g><path style="opacity:0.012" fill="#070707" d="M 197.5,144.5 C 198.906,144.973 199.573,145.973 199.5,147.5C 198.094,147.027 197.427,146.027 197.5,144.5 Z"/></g>
<g><path style="opacity:0.008" fill="#060606" d="M 296.5,146.5 C 295.5,149.5 293.5,151.5 290.5,152.5C 292.167,150.167 294.167,148.167 296.5,146.5 Z"/></g>
<g><path style="opacity:0.941" fill="#0f1010" d="M 744.5,147.5 C 746.824,147.877 747.491,148.877 746.5,150.5C 745.094,150.027 744.427,149.027 744.5,147.5 Z"/></g>
<g><path style="opacity:0.004" fill="#050505" d="M 818.5,148.5 C 818.573,150.027 817.906,151.027 816.5,151.5C 816.427,149.973 817.094,148.973 818.5,148.5 Z"/></g>
<g><path style="opacity:0.004" fill="#090909" d="M 414.5,149.5 C 416.446,150.035 417.446,151.368 417.5,153.5C 416.026,152.564 415.026,151.23 414.5,149.5 Z"/></g>
<g><path style="opacity:0.008" fill="#060607" d="M 706.5,150.5 C 706.573,152.027 705.906,153.027 704.5,153.5C 704.427,151.973 705.094,150.973 706.5,150.5 Z"/></g>
<g><path style="opacity:0.008" fill="#060606" d="M 746.5,150.5 C 747.906,150.973 748.573,151.973 748.5,153.5C 747.094,153.027 746.427,152.027 746.5,150.5 Z"/></g>
<g><path style="opacity:0.141" fill="#0a0a0b" d="M 201.5,149.5 C 204.089,150.419 206.089,152.086 207.5,154.5C 204.911,153.581 202.911,151.914 201.5,149.5 Z"/></g>
<g><path style="opacity:0.004" fill="#040404" d="M 417.5,153.5 C 418.906,153.973 419.573,154.973 419.5,156.5C 418.094,156.027 417.427,155.027 417.5,153.5 Z"/></g>
<g><path style="opacity:0.008" fill="#060606" d="M 815.5,152.5 C 815.167,154.833 813.833,156.167 811.5,156.5C 812.5,154.833 813.833,153.5 815.5,152.5 Z"/></g>
<g><path style="opacity:0.271" fill="#0e0e0e" d="M 207.5,154.5 C 209.027,154.427 210.027,155.094 210.5,156.5C 208.973,156.573 207.973,155.906 207.5,154.5 Z"/></g>
<g><path style="opacity:0.004" fill="#040404" d="M 288.5,154.5 C 288.027,155.906 287.027,156.573 285.5,156.5C 285.973,155.094 286.973,154.427 288.5,154.5 Z"/></g>
<g><path style="opacity:0.004" fill="#040404" d="M 703.5,154.5 C 703.027,155.906 702.027,156.573 700.5,156.5C 700.973,155.094 701.973,154.427 703.5,154.5 Z"/></g>
<g><path style="opacity:0.165" fill="#0c0c0c" d="M 210.5,156.5 C 212.027,156.427 213.027,157.094 213.5,158.5C 211.973,158.573 210.973,157.906 210.5,156.5 Z"/></g>
<g><path style="opacity:0.165" fill="#090909" d="M 631.5,156.5 C 633.027,156.427 634.027,157.094 634.5,158.5C 632.973,158.573 631.973,157.906 631.5,156.5 Z"/></g>
<g><path style="opacity:0.341" fill="#101010" d="M 751.5,156.5 C 753.027,156.427 754.027,157.094 754.5,158.5C 752.973,158.573 751.973,157.906 751.5,156.5 Z"/></g>
<g><path style="opacity:0.004" fill="#040404" d="M 811.5,156.5 C 811.5,157.833 810.833,158.5 809.5,158.5C 809.833,157.5 810.5,156.833 811.5,156.5 Z"/></g>
<g><path style="opacity:0.004" fill="#000000" d="M 78.5,166.5 C 79.8333,167.167 79.8333,167.167 78.5,166.5 Z"/></g>
<g><path style="opacity:0.004" fill="#000000" d="M 81.5,166.5 C 82.8333,167.167 82.8333,167.167 81.5,166.5 Z"/></g>
<g><path style="opacity:0.004" fill="#000000" d="M 564.5,166.5 C 565.833,167.167 565.833,167.167 564.5,166.5 Z"/></g>
<g><path style="opacity:0.004" fill="#000000" d="M 708.5,195.5 C 709.833,196.167 709.833,196.167 708.5,195.5 Z"/></g>
<g><path style="opacity:0.004" fill="#000000" d="M 425.5,197.5 C 426.833,198.167 426.833,198.167 425.5,197.5 Z"/></g>
<g><path style="opacity:0.004" fill="#000000" d="M 819.5,197.5 C 820.833,198.167 820.833,198.167 819.5,197.5 Z"/></g>
<g><path style="opacity:0.871" fill="#181819" d="M 31.5,200.5 C 31.9281,203.785 32.9281,206.785 34.5,209.5C 35.404,210.209 35.7373,211.209 35.5,212.5C 36.3982,217.534 38.0649,222.201 40.5,226.5C 43.6561,231.853 42.1561,233.52 36,231.5C 35.2193,223.093 30.7193,220.426 22.5,223.5C 21.7908,226.384 20.7908,229.051 19.5,231.5C 18.1667,231.5 16.8333,231.5 15.5,231.5C 15.5,230.167 15.5,228.833 15.5,227.5C 18.6981,217.905 21.6981,208.238 24.5,198.5C 27.3878,197.99 29.7211,198.656 31.5,200.5 Z M 31.5,216.5 C 30.5514,217.152 29.3847,217.486 28,217.5C 26.3189,217.392 25.1522,216.725 24.5,215.5C 26.1321,212.442 27.2987,209.109 28,205.5C 29.2792,209.169 30.4459,212.836 31.5,216.5 Z"/></g>
<g><path style="opacity:0.903" fill="#1a1a1b" d="M 45.5,198.5 C 64.0699,195.35 71.9033,203.016 69,221.5C 67.3281,228.01 63.1614,231.343 56.5,231.5C 52.8333,231.5 49.1667,231.5 45.5,231.5C 45.5,220.5 45.5,209.5 45.5,198.5 Z M 57.5,203.5 C 57.8417,204.338 58.5084,204.672 59.5,204.5C 60.1667,205.833 61.1667,206.833 62.5,207.5C 63.2721,211.452 63.6054,215.452 63.5,219.5C 62.596,220.209 62.2627,221.209 62.5,222.5C 60.8333,223.5 59.5,224.833 58.5,226.5C 55.8333,226.5 53.1667,226.5 50.5,226.5C 50.5,218.833 50.5,211.167 50.5,203.5C 52.8333,203.5 55.1667,203.5 57.5,203.5 Z"/></g>
<g><path style="opacity:0.866" fill="#171818" d="M 95.5,198.5 C 95.0074,200.806 94.6741,203.139 94.5,205.5C 94.405,207.786 93.7384,209.786 92.5,211.5C 91.2616,213.214 90.595,215.214 90.5,217.5C 89.6124,222.072 88.2791,226.405 86.5,230.5C 84.6208,231.341 82.6208,231.675 80.5,231.5C 77.5929,225.901 75.5929,219.901 74.5,213.5C 74.405,211.214 73.7384,209.214 72.5,207.5C 70.9281,204.785 69.9281,201.785 69.5,198.5C 71.604,198.201 73.604,198.534 75.5,199.5C 78.099,207.464 80.599,215.464 83,223.5C 86.0086,215.309 88.5086,206.975 90.5,198.5C 92.1667,198.5 93.8333,198.5 95.5,198.5 Z"/></g>
<g><path style="opacity:0.878" fill="#19191a" d="M 118.5,198.5 C 118.5,199.833 118.5,201.167 118.5,202.5C 113.5,202.5 108.5,202.5 103.5,202.5C 103.187,206.042 103.521,209.375 104.5,212.5C 108.5,212.5 112.5,212.5 116.5,212.5C 116.5,213.833 116.5,215.167 116.5,216.5C 112.167,216.5 107.833,216.5 103.5,216.5C 103.5,220.167 103.5,223.833 103.5,227.5C 108.927,227.218 114.26,227.551 119.5,228.5C 119.5,229.833 119.5,231.167 119.5,232.5C 112.578,232.812 105.744,232.479 99,231.5C 98.5002,220.505 98.3335,209.505 98.5,198.5C 105.167,198.5 111.833,198.5 118.5,198.5 Z"/></g>
<g><path style="opacity:0.887" fill="#191a1a" d="M 125.5,198.5 C 132.048,197.968 138.382,198.635 144.5,200.5C 144.427,202.027 145.094,203.027 146.5,203.5C 147.833,206.5 147.833,209.5 146.5,212.5C 145.094,212.973 144.427,213.973 144.5,215.5C 144.158,216.338 143.492,216.672 142.5,216.5C 140.448,217.053 140.115,218.053 141.5,219.5C 142.674,220.514 143.34,221.847 143.5,223.5C 143.427,225.027 144.094,226.027 145.5,226.5C 146.338,226.842 146.672,227.508 146.5,228.5C 146.414,229.496 146.748,230.329 147.5,231C 145.866,231.494 144.199,231.66 142.5,231.5C 139.597,227.37 136.93,223.037 134.5,218.5C 133.081,217.549 131.415,217.216 129.5,217.5C 129.5,222.167 129.5,226.833 129.5,231.5C 128.167,231.5 126.833,231.5 125.5,231.5C 125.5,220.5 125.5,209.5 125.5,198.5 Z M 140.5,204.5 C 142.543,208.675 141.543,211.675 137.5,213.5C 135.167,213.5 132.833,213.5 130.5,213.5C 130.5,210.167 130.5,206.833 130.5,203.5C 133.902,203.342 137.236,203.676 140.5,204.5 Z"/></g>
<g><path style="opacity:0.885" fill="#181818" d="M 150.5,228.5 C 150.738,226.596 151.738,225.262 153.5,224.5C 157.488,227.442 161.821,228.109 166.5,226.5C 168.597,225.121 168.93,223.455 167.5,221.5C 167.5,219.5 166.5,218.5 164.5,218.5C 154.757,217.279 150.59,211.946 152,202.5C 158.315,196.221 164.981,195.887 172,201.5C 172.309,203.391 171.475,204.725 169.5,205.5C 166.038,203.609 162.372,203.109 158.5,204C 157.167,206 157.167,208 158.5,210C 163.365,211.945 167.865,214.445 172,217.5C 174.776,224.111 172.943,228.944 166.5,232C 160.451,233.378 155.118,232.212 150.5,228.5 Z"/></g>
<g><path style="opacity:0.158" fill="#090909" d="M 178.5,198.5 C 178.5,209.5 178.5,220.5 178.5,231.5C 184.833,231.5 191.167,231.5 197.5,231.5C 197.5,230.167 197.5,228.833 197.5,227.5C 198.451,228.919 198.784,230.585 198.5,232.5C 191.5,232.5 184.5,232.5 177.5,232.5C 177.172,220.988 177.505,209.654 178.5,198.5 Z"/></g>
<g><path style="opacity:0.879" fill="#1b1b1c" d="M 178.5,198.5 C 184.833,198.5 191.167,198.5 197.5,198.5C 197.5,199.833 197.5,201.167 197.5,202.5C 192.5,202.5 187.5,202.5 182.5,202.5C 182.187,206.042 182.521,209.375 183.5,212.5C 187.5,212.5 191.5,212.5 195.5,212.5C 195.5,213.833 195.5,215.167 195.5,216.5C 191.167,216.5 186.833,216.5 182.5,216.5C 182.5,220.167 182.5,223.833 182.5,227.5C 187.5,227.5 192.5,227.5 197.5,227.5C 197.5,228.833 197.5,230.167 197.5,231.5C 191.167,231.5 184.833,231.5 178.5,231.5C 178.5,220.5 178.5,209.5 178.5,198.5 Z"/></g>
<g><path style="opacity:0.906" fill="#1a1a1b" d="M 213.5,198.5 C 232.826,196.323 240.326,204.656 236,223.5C 233.995,228.756 230.161,231.422 224.5,231.5C 220.833,231.5 217.167,231.5 213.5,231.5C 213.5,220.5 213.5,209.5 213.5,198.5 Z M 225.5,203.5 C 228.228,205.069 230.062,207.402 231,210.5C 231.607,214.537 231.44,218.537 230.5,222.5C 228.833,223.5 227.5,224.833 226.5,226.5C 223.833,226.5 221.167,226.5 218.5,226.5C 218.5,218.833 218.5,211.167 218.5,203.5C 220.833,203.5 223.167,203.5 225.5,203.5 Z"/></g>
<g><path style="opacity:0.888" fill="#19191a" d="M 262.5,200.5 C 262.427,202.027 263.094,203.027 264.5,203.5C 265.833,206.5 265.833,209.5 264.5,212.5C 263.094,212.973 262.427,213.973 262.5,215.5C 262.158,216.338 261.492,216.672 260.5,216.5C 258.448,217.053 258.115,218.053 259.5,219.5C 260.674,220.514 261.34,221.847 261.5,223.5C 261.427,225.027 262.094,226.027 263.5,226.5C 264.338,226.842 264.672,227.508 264.5,228.5C 264.414,229.496 264.748,230.329 265.5,231C 263.866,231.494 262.199,231.66 260.5,231.5C 257.583,227.334 254.916,223.001 252.5,218.5C 251.081,217.549 249.415,217.216 247.5,217.5C 247.5,222.167 247.5,226.833 247.5,231.5C 245.833,231.5 244.167,231.5 242.5,231.5C 242.5,220.5 242.5,209.5 242.5,198.5C 248.176,198.334 253.843,198.501 259.5,199C 260.527,199.513 261.527,200.013 262.5,200.5 Z M 258.5,204.5 C 260.543,208.675 259.543,211.675 255.5,213.5C 253.167,213.5 250.833,213.5 248.5,213.5C 248.5,210.167 248.5,206.833 248.5,203.5C 251.902,203.342 255.236,203.676 258.5,204.5 Z"/></g>
<g><path style="opacity:0.891" fill="#181819" d="M 288.5,225.5 C 289.222,225.082 289.722,224.416 290,223.5C 290.5,215.173 290.666,206.84 290.5,198.5C 292.167,198.5 293.833,198.5 295.5,198.5C 295.886,207.9 295.386,217.234 294,226.5C 291.581,231.039 287.748,233.039 282.5,232.5C 277.571,232.953 274.071,230.953 272,226.5C 270.614,217.234 270.114,207.9 270.5,198.5C 272.5,198.5 274.5,198.5 276.5,198.5C 276.086,207.582 276.586,216.582 278,225.5C 281.496,228.101 284.996,228.101 288.5,225.5 Z"/></g>
<g><path style="opacity:0.096" fill="#060606" d="M 290.5,198.5 C 290.666,206.84 290.5,215.173 290,223.5C 289.722,224.416 289.222,225.082 288.5,225.5C 289.085,216.356 289.752,207.356 290.5,198.5 Z"/></g>
<g><path style="opacity:0.888" fill="#171818" d="M 323.5,200.5 C 325.002,202.829 324.336,204.163 321.5,204.5C 318.236,203.676 314.902,203.342 311.5,203.5C 309.167,203.833 307.833,205.167 307.5,207.5C 305.377,214.469 306.377,220.802 310.5,226.5C 312.993,228.584 315.66,228.917 318.5,227.5C 320.179,227.715 321.179,227.048 321.5,225.5C 321.5,223.167 321.5,220.833 321.5,218.5C 318.833,218.5 316.167,218.5 313.5,218.5C 313.286,216.856 313.62,215.356 314.5,214C 318.167,213.333 321.833,213.333 325.5,214C 330.547,228.585 325.547,234.585 310.5,232C 303.493,228.842 299.826,223.342 299.5,215.5C 299.759,211.815 300.759,208.482 302.5,205.5C 303.906,205.027 304.573,204.027 304.5,202.5C 310.369,196.807 316.703,196.14 323.5,200.5 Z"/></g>
<g><path style="opacity:0.89" fill="#19191a" d="M 342.5,198.5 C 348.621,198.09 354.621,198.59 360.5,200C 364.401,203.48 365.401,207.647 363.5,212.5C 362.094,212.973 361.427,213.973 361.5,215.5C 360.317,216.504 358.984,217.338 357.5,218C 359.494,220.158 360.828,222.658 361.5,225.5C 361.427,227.027 362.094,228.027 363.5,228.5C 364.338,228.842 364.672,229.508 364.5,230.5C 363.081,231.451 361.415,231.784 359.5,231.5C 356.775,227.732 354.275,223.732 352,219.5C 350.301,218.594 348.467,218.261 346.5,218.5C 346.5,222.833 346.5,227.167 346.5,231.5C 345.167,231.5 343.833,231.5 342.5,231.5C 342.5,220.5 342.5,209.5 342.5,198.5 Z M 346.5,203.5 C 350.234,203.323 353.901,203.656 357.5,204.5C 358.992,207.379 358.659,210.046 356.5,212.5C 353.242,213.417 349.909,213.751 346.5,213.5C 346.5,210.167 346.5,206.833 346.5,203.5 Z"/></g>
<g><path style="opacity:0.88" fill="#1a1a1a" d="M 389.5,202.5 C 384.5,202.5 379.5,202.5 374.5,202.5C 374.187,206.042 374.521,209.375 375.5,212.5C 379.5,212.5 383.5,212.5 387.5,212.5C 387.768,214.099 387.434,215.432 386.5,216.5C 382.5,216.5 378.5,216.5 374.5,216.5C 374.5,220.167 374.5,223.833 374.5,227.5C 379.5,227.5 384.5,227.5 389.5,227.5C 389.5,228.833 389.5,230.167 389.5,231.5C 383.021,232.491 376.354,232.824 369.5,232.5C 369.5,221.167 369.5,209.833 369.5,198.5C 376.5,198.5 383.5,198.5 390.5,198.5C 390.768,200.099 390.434,201.432 389.5,202.5 Z"/></g>
<g><path style="opacity:0.889" fill="#181819" d="M 402.5,198.5 C 404.467,198.261 406.301,198.594 408,199.5C 411.453,208.739 414.62,218.073 417.5,227.5C 417.5,228.833 417.5,230.167 417.5,231.5C 415.446,231.635 413.779,230.968 412.5,229.5C 412.59,226.848 411.924,224.515 410.5,222.5C 406.5,222.5 402.5,222.5 398.5,222.5C 398.44,225.341 397.774,228.007 396.5,230.5C 394.274,232.18 392.607,231.847 391.5,229.5C 393.928,220.215 396.928,211.215 400.5,202.5C 401.674,201.486 402.34,200.153 402.5,198.5 Z M 403.5,207.5 C 404.9,208.1 405.9,209.1 406.5,210.5C 406.263,211.791 406.596,212.791 407.5,213.5C 407.5,214.833 407.5,216.167 407.5,217.5C 405.167,217.5 402.833,217.5 400.5,217.5C 401.899,214.301 402.899,210.968 403.5,207.5 Z"/></g>
<g><path style="opacity:0.88" fill="#181819" d="M 442.5,201.5 C 442.5,203.5 441.5,204.5 439.5,204.5C 438.833,204.5 438.5,204.167 438.5,203.5C 435.696,202.362 432.696,202.195 429.5,203C 428.944,203.383 428.611,203.883 428.5,204.5C 428.068,205.71 427.401,206.71 426.5,207.5C 424.787,208.635 424.12,210.302 424.5,212.5C 424.691,216.262 425.358,219.929 426.5,223.5C 426.967,226.297 428.633,227.631 431.5,227.5C 433.903,227.552 436.236,227.219 438.5,226.5C 439.833,226.167 441.167,225.833 442.5,225.5C 443.11,226.391 443.443,227.391 443.5,228.5C 442.251,230.136 440.584,231.303 438.5,232C 425.544,233.844 418.877,228.177 418.5,215C 419.259,202.9 425.592,197.234 437.5,198C 439.584,198.697 441.251,199.864 442.5,201.5 Z"/></g>
<g><path style="opacity:0.872" fill="#181819" d="M 445.5,198.5 C 453.5,198.5 461.5,198.5 469.5,198.5C 469.5,200.167 469.5,201.833 469.5,203.5C 465.958,203.187 462.625,203.521 459.5,204.5C 459.5,213.5 459.5,222.5 459.5,231.5C 457.833,231.5 456.167,231.5 454.5,231.5C 453.184,222.265 453.184,212.932 454.5,203.5C 451.713,202.523 448.713,202.19 445.5,202.5C 445.5,201.167 445.5,199.833 445.5,198.5 Z"/></g>
<g><path style="opacity:0.899" fill="#181819" d="M 509.5,228.5 C 494.502,236.5 485.835,232 483.5,215C 485.717,199.063 494.05,194.396 508.5,201C 514.775,209.965 515.108,219.131 509.5,228.5 Z M 502.5,203.5 C 503.167,204.833 504.167,205.833 505.5,206.5C 507.81,211.668 508.144,217.002 506.5,222.5C 505.094,222.973 504.427,223.973 504.5,225.5C 503.833,225.5 503.5,225.833 503.5,226.5C 498.781,228.32 494.781,227.32 491.5,223.5C 490.167,217.833 490.167,212.167 491.5,206.5C 494.581,203.807 498.247,202.807 502.5,203.5 Z"/></g>
<g><path style="opacity:0.887" fill="#181819" d="M 536.5,221.5 C 536.987,222.473 537.487,223.473 538,224.5C 538.5,215.84 538.666,207.173 538.5,198.5C 539.833,198.5 541.167,198.5 542.5,198.5C 542.5,209.5 542.5,220.5 542.5,231.5C 540.833,231.5 539.167,231.5 537.5,231.5C 533.414,226.335 530.08,220.668 527.5,214.5C 527.573,212.973 526.906,211.973 525.5,211.5C 524.662,211.158 524.328,210.492 524.5,209.5C 524.291,208.078 523.791,206.745 523,205.5C 522.5,214.16 522.334,222.827 522.5,231.5C 521.167,231.5 519.833,231.5 518.5,231.5C 517.505,220.679 517.172,209.679 517.5,198.5C 519.924,198.192 522.257,198.526 524.5,199.5C 528.958,206.614 532.958,213.948 536.5,221.5 Z"/></g>
<g><path style="opacity:0.056" fill="#040404" d="M 542.5,198.5 C 543.495,209.654 543.828,220.988 543.5,232.5C 541.265,232.795 539.265,232.461 537.5,231.5C 539.167,231.5 540.833,231.5 542.5,231.5C 542.5,220.5 542.5,209.5 542.5,198.5 Z"/></g>
<g><path style="opacity:0.888" fill="#1a1a1b" d="M 572.5,220.5 C 573.302,221.885 573.969,221.718 574.5,220C 575.148,218.56 575.481,217.06 575.5,215.5C 575.595,213.214 576.262,211.214 577.5,209.5C 579.267,207.208 580.267,204.542 580.5,201.5C 581.401,200.71 582.068,199.71 582.5,198.5C 584.167,198.5 585.833,198.5 587.5,198.5C 587.5,209.5 587.5,220.5 587.5,231.5C 586.167,231.5 584.833,231.5 583.5,231.5C 583.666,223.16 583.5,214.827 583,206.5C 582.209,207.745 581.709,209.078 581.5,210.5C 581.5,210.833 581.5,211.167 581.5,211.5C 580.662,211.842 580.328,212.508 580.5,213.5C 578.841,218.143 577.174,222.81 575.5,227.5C 574.675,228.386 573.675,228.719 572.5,228.5C 572.068,227.29 571.401,226.29 570.5,225.5C 570.405,223.214 569.738,221.214 568.5,219.5C 567.596,218.791 567.263,217.791 567.5,216.5C 567.34,214.847 566.674,213.514 565.5,212.5C 565.313,210.436 564.813,208.436 564,206.5C 563.5,214.827 563.334,223.16 563.5,231.5C 562.167,231.5 560.833,231.5 559.5,231.5C 559.5,220.5 559.5,209.5 559.5,198.5C 561.604,198.201 563.604,198.534 565.5,199.5C 568.128,206.417 570.461,213.417 572.5,220.5 Z"/></g>
<g><path style="opacity:0.892" fill="#181819" d="M 619.5,205.5 C 619.796,207.403 620.463,209.07 621.5,210.5C 622.767,213.272 622.767,215.939 621.5,218.5C 620.388,220.599 619.721,222.933 619.5,225.5C 615.698,232.05 610.032,234.216 602.5,232C 595.595,228.534 592.262,222.868 592.5,215C 593.532,199.657 601.199,194.657 615.5,200C 617.464,201.451 618.797,203.284 619.5,205.5 Z M 603.5,203.5 C 611.972,202.465 616.306,206.298 616.5,215C 615.907,217.87 615.241,220.703 614.5,223.5C 612.809,224.864 611.142,226.197 609.5,227.5C 607.139,227.326 604.806,226.993 602.5,226.5C 602.5,225.833 602.167,225.5 601.5,225.5C 601.573,223.973 600.906,222.973 599.5,222.5C 599.737,221.209 599.404,220.209 598.5,219.5C 598.269,215.007 598.936,210.674 600.5,206.5C 601.833,205.833 602.833,204.833 603.5,203.5 Z"/></g>
<g><path style="opacity:0.887" fill="#1a1a1b" d="M 627.5,198.5 C 629.467,198.261 631.301,198.594 633,199.5C 637.366,206.234 641.199,213.234 644.5,220.5C 644.5,221.167 644.833,221.5 645.5,221.5C 645.833,222.833 646.167,222.833 646.5,221.5C 646.5,213.833 646.5,206.167 646.5,198.5C 647.833,198.5 649.167,198.5 650.5,198.5C 650.5,209.5 650.5,220.5 650.5,231.5C 648.833,231.5 647.167,231.5 645.5,231.5C 641.663,225.83 638.33,219.83 635.5,213.5C 635.573,211.973 634.906,210.973 633.5,210.5C 632.732,209.737 632.232,208.737 632,207.5C 631.506,209.134 631.34,210.801 631.5,212.5C 631.5,218.833 631.5,225.167 631.5,231.5C 630.167,231.5 628.833,231.5 627.5,231.5C 627.5,220.5 627.5,209.5 627.5,198.5 Z"/></g>
<g><path style="opacity:0.004" fill="#000000" d="M 643.5,198.5 C 644.833,199.167 644.833,199.167 643.5,198.5 Z"/></g>
<g><path style="opacity:0.068" fill="#040404" d="M 646.5,198.5 C 646.5,206.167 646.5,213.833 646.5,221.5C 646.167,221.5 645.833,221.5 645.5,221.5C 644.833,221.5 644.5,221.167 644.5,220.5C 645.167,213.167 645.833,205.833 646.5,198.5 Z"/></g>
<g><path style="opacity:0.867" fill="#171718" d="M 658.5,198.5 C 660.5,198.5 662.5,198.5 664.5,198.5C 664.667,209.505 664.5,220.505 664,231.5C 662.301,232.406 660.467,232.739 658.5,232.5C 658.5,221.167 658.5,209.833 658.5,198.5 Z"/></g>
<g><path style="opacity:0.874" fill="#1a1a1b" d="M 668.5,198.5 C 676.5,198.5 684.5,198.5 692.5,198.5C 692.5,200.167 692.5,201.833 692.5,203.5C 689.15,203.335 685.817,203.502 682.5,204C 683.598,204.77 683.598,205.603 682.5,206.5C 682.5,214.167 682.5,221.833 682.5,229.5C 680.708,229.634 679.042,229.301 677.5,228.5C 677.5,220.167 677.5,211.833 677.5,203.5C 674.713,202.523 671.713,202.19 668.5,202.5C 668.5,201.167 668.5,199.833 668.5,198.5 Z"/></g>
<g><path style="opacity:0.899" fill="#171818" d="M 721.5,207.5 C 721.942,211.154 722.276,214.821 722.5,218.5C 722.585,221.649 721.585,224.316 719.5,226.5C 718.094,226.973 717.427,227.973 717.5,229.5C 702.68,236.201 694.68,231.368 693.5,215C 693.328,211.523 693.994,208.356 695.5,205.5C 696.906,205.027 697.573,204.027 697.5,202.5C 703.076,196.966 709.41,196.133 716.5,200C 719.2,201.857 720.866,204.357 721.5,207.5 Z M 704.5,203.5 C 707.57,203.368 710.57,203.701 713.5,204.5C 717.804,212.144 717.471,219.477 712.5,226.5C 710.194,226.993 707.861,227.326 705.5,227.5C 699.848,222.872 698.015,216.872 700,209.5C 701.277,207.253 702.777,205.253 704.5,203.5 Z"/></g>
<g><path style="opacity:0.894" fill="#1a1a1b" d="M 728.5,198.5 C 733.844,198.334 739.177,198.501 744.5,199C 750.172,201.768 752.006,206.268 750,212.5C 749.623,213.942 748.79,214.942 747.5,215.5C 744.366,215.707 743.366,217.04 744.5,219.5C 745.833,221.167 747.167,222.833 748.5,224.5C 748.893,226.284 749.559,227.95 750.5,229.5C 749.448,231.256 747.781,231.923 745.5,231.5C 744.662,231.158 744.328,230.492 744.5,229.5C 744.573,227.973 743.906,226.973 742.5,226.5C 741.662,226.158 741.328,225.492 741.5,224.5C 741.34,222.847 740.674,221.514 739.5,220.5C 739.586,219.504 739.252,218.671 738.5,218C 736.527,217.505 734.527,217.338 732.5,217.5C 732.5,222.167 732.5,226.833 732.5,231.5C 731.167,231.5 729.833,231.5 728.5,231.5C 728.5,220.5 728.5,209.5 728.5,198.5 Z M 742.5,203.5 C 744.773,206.222 745.107,209.222 743.5,212.5C 742.609,213.11 741.609,213.443 740.5,213.5C 738.167,213.5 735.833,213.5 733.5,213.5C 733.5,210.167 733.5,206.833 733.5,203.5C 736.5,203.5 739.5,203.5 742.5,203.5 Z"/></g>
<g><path style="opacity:0.861" fill="#191a1a" d="M 773.5,198.5 C 773.427,200.027 774.094,201.027 775.5,201.5C 776.674,202.514 777.34,203.847 777.5,205.5C 777.427,207.027 778.094,208.027 779.5,208.5C 780.338,208.842 780.672,209.508 780.5,210.5C 780.427,212.027 781.094,213.027 782.5,213.5C 783.674,214.514 784.34,215.847 784.5,217.5C 784.427,219.027 785.094,220.027 786.5,220.5C 786.5,220.833 786.5,221.167 786.5,221.5C 786.461,222.756 786.961,223.756 788,224.5C 788.5,215.84 788.666,207.173 788.5,198.5C 789.833,198.5 791.167,198.5 792.5,198.5C 792.5,209.5 792.5,220.5 792.5,231.5C 790.777,232.807 788.943,232.807 787,231.5C 782.556,224.274 778.39,216.941 774.5,209.5C 774.539,208.244 774.039,207.244 773,206.5C 772.5,214.827 772.334,223.16 772.5,231.5C 771.167,231.5 769.833,231.5 768.5,231.5C 768.5,220.5 768.5,209.5 768.5,198.5C 770.167,198.5 771.833,198.5 773.5,198.5 Z"/></g>
<g><path style="opacity:0.01" fill="#000000" d="M 792.5,198.5 C 794.477,209.641 794.477,220.641 792.5,231.5C 792.5,220.5 792.5,209.5 792.5,198.5 Z"/></g>
<g><path style="opacity:0.882" fill="#19191a" d="M 819.5,198.5 C 821.118,199.451 822.451,200.784 823.5,202.5C 823.145,203.522 822.478,204.189 821.5,204.5C 820.167,204.167 818.833,203.833 817.5,203.5C 814.696,202.362 811.696,202.195 808.5,203C 807.944,203.383 807.611,203.883 807.5,204.5C 805.688,206.461 804.688,208.794 804.5,211.5C 803.163,215.511 803.496,219.511 805.5,223.5C 805.5,225.5 806.5,226.5 808.5,226.5C 809.492,226.328 810.158,226.662 810.5,227.5C 813.34,228.917 816.007,228.584 818.5,226.5C 818.5,223.833 818.5,221.167 818.5,218.5C 816.833,218.5 815.167,218.5 813.5,218.5C 812.566,217.432 812.232,216.099 812.5,214.5C 816.167,214.5 819.833,214.5 823.5,214.5C 823.5,219.167 823.5,223.833 823.5,228.5C 822.251,230.136 820.584,231.303 818.5,232C 813.266,232.977 808.266,232.31 803.5,230C 801.859,228.871 800.859,227.371 800.5,225.5C 798.299,219.28 797.965,212.946 799.5,206.5C 800.906,206.027 801.573,205.027 801.5,203.5C 806.274,197.807 812.274,196.141 819.5,198.5 Z"/></g>
<g><path style="opacity:0.157" fill="#090909" d="M 45.5,198.5 C 45.5,209.5 45.5,220.5 45.5,231.5C 49.1667,231.5 52.8333,231.5 56.5,231.5C 52.7016,232.483 48.7016,232.817 44.5,232.5C 44.1719,220.988 44.5052,209.654 45.5,198.5 Z"/></g>
<g><path style="opacity:0.328" fill="#111111" d="M 125.5,198.5 C 125.5,209.5 125.5,220.5 125.5,231.5C 126.833,231.5 128.167,231.5 129.5,231.5C 128.081,232.451 126.415,232.784 124.5,232.5C 124.172,220.988 124.505,209.654 125.5,198.5 Z"/></g>
<g><path style="opacity:0.254" fill="#0e0e0e" d="M 213.5,198.5 C 213.5,209.5 213.5,220.5 213.5,231.5C 217.167,231.5 220.833,231.5 224.5,231.5C 220.702,232.483 216.702,232.817 212.5,232.5C 212.172,220.988 212.505,209.654 213.5,198.5 Z"/></g>
<g><path style="opacity:0.398" fill="#0f0f0f" d="M 342.5,198.5 C 342.5,209.5 342.5,220.5 342.5,231.5C 343.833,231.5 345.167,231.5 346.5,231.5C 344.777,232.807 342.943,232.807 341,231.5C 340.833,226 340.667,220.5 340.5,215C 340.505,209.124 341.171,203.624 342.5,198.5 Z"/></g>
<g><path style="opacity:0.373" fill="#0d0d0d" d="M 402.5,198.5 C 402.34,200.153 401.674,201.486 400.5,202.5C 400.229,200.62 400.896,199.287 402.5,198.5 Z"/></g>
<g><path style="opacity:0.144" fill="#0b0b0b" d="M 474.5,198.5 C 474.5,209.5 474.5,220.5 474.5,231.5C 475.833,231.5 477.167,231.5 478.5,231.5C 478.5,220.5 478.5,209.5 478.5,198.5C 479.495,209.654 479.828,220.988 479.5,232.5C 477.5,232.5 475.5,232.5 473.5,232.5C 473.172,220.988 473.505,209.654 474.5,198.5 Z"/></g>
<g><path style="opacity:0.888" fill="#1b1c1d" d="M 474.5,198.5 C 475.833,198.5 477.167,198.5 478.5,198.5C 478.5,209.5 478.5,220.5 478.5,231.5C 477.167,231.5 475.833,231.5 474.5,231.5C 474.5,220.5 474.5,209.5 474.5,198.5 Z"/></g>
<g><path style="opacity:0.378" fill="#131314" d="M 538.5,198.5 C 538.666,207.173 538.5,215.84 538,224.5C 537.487,223.473 536.987,222.473 536.5,221.5C 537.167,213.833 537.833,206.167 538.5,198.5 Z"/></g>
<g><path style="opacity:0.102" fill="#090909" d="M 582.5,198.5 C 582.068,199.71 581.401,200.71 580.5,201.5C 580.285,199.821 580.952,198.821 582.5,198.5 Z"/></g>
<g><path style="opacity:0.294" fill="#101010" d="M 650.5,198.5 C 651.495,209.654 651.828,220.988 651.5,232.5C 649.265,232.795 647.265,232.461 645.5,231.5C 647.167,231.5 648.833,231.5 650.5,231.5C 650.5,220.5 650.5,209.5 650.5,198.5 Z"/></g>
<g><path style="opacity:0.004" fill="#000000" d="M 725.5,199.5 C 726.833,200.167 726.833,200.167 725.5,199.5 Z"/></g>
<g><path style="opacity:0.16" fill="#0c0c0c" d="M 756.5,198.5 C 756.5,209.5 756.5,220.5 756.5,231.5C 757.833,231.5 759.167,231.5 760.5,231.5C 760.5,220.5 760.5,209.5 760.5,198.5C 761.495,209.654 761.828,220.988 761.5,232.5C 759.5,232.5 757.5,232.5 755.5,232.5C 755.172,220.988 755.505,209.654 756.5,198.5 Z"/></g>
<g><path style="opacity:0.887" fill="#1b1c1d" d="M 756.5,198.5 C 757.833,198.5 759.167,198.5 760.5,198.5C 760.5,209.5 760.5,220.5 760.5,231.5C 759.167,231.5 757.833,231.5 756.5,231.5C 756.5,220.5 756.5,209.5 756.5,198.5 Z"/></g>
<g><path style="opacity:0.029" fill="#050505" d="M 95.5,198.5 C 96.2389,198.369 96.9056,198.536 97.5,199C 96.5783,201.294 95.5783,203.461 94.5,205.5C 94.6741,203.139 95.0074,200.806 95.5,198.5 Z"/></g>
<g><path style="opacity:0.004" fill="#000000" d="M 480.5,200.5 C 481.833,201.167 481.833,201.167 480.5,200.5 Z"/></g>
<g><path style="opacity:0.004" fill="#000000" d="M 720.5,200.5 C 721.833,201.167 721.833,201.167 720.5,200.5 Z"/></g>
<g><path style="opacity:0.133" fill="#090909" d="M 773.5,198.5 C 774.906,198.973 775.573,199.973 775.5,201.5C 774.094,201.027 773.427,200.027 773.5,198.5 Z"/></g>
<g><path style="opacity:0.004" fill="#000000" d="M 724.5,202.5 C 725.077,201.227 725.743,201.227 726.5,202.5C 726.03,203.463 725.363,203.463 724.5,202.5 Z"/></g>
<g><path style="opacity:0.337" fill="#111111" d="M 788.5,198.5 C 788.666,207.173 788.5,215.84 788,224.5C 786.961,223.756 786.461,222.756 786.5,221.5C 787.167,213.833 787.833,206.167 788.5,198.5 Z"/></g>
<g><path style="opacity:0.119" fill="#090909" d="M 118.5,198.5 C 119.451,199.919 119.784,201.585 119.5,203.5C 114.5,203.5 109.5,203.5 104.5,203.5C 104.5,206.5 104.5,209.5 104.5,212.5C 103.521,209.375 103.187,206.042 103.5,202.5C 108.5,202.5 113.5,202.5 118.5,202.5C 118.5,201.167 118.5,199.833 118.5,198.5 Z"/></g>
<g><path style="opacity:0.145" fill="#080808" d="M 144.5,200.5 C 145.906,200.973 146.573,201.973 146.5,203.5C 145.094,203.027 144.427,202.027 144.5,200.5 Z"/></g>
<g><path style="opacity:0.114" fill="#090909" d="M 197.5,198.5 C 198.451,199.919 198.784,201.585 198.5,203.5C 193.5,203.5 188.5,203.5 183.5,203.5C 183.5,206.5 183.5,209.5 183.5,212.5C 182.521,209.375 182.187,206.042 182.5,202.5C 187.5,202.5 192.5,202.5 197.5,202.5C 197.5,201.167 197.5,199.833 197.5,198.5 Z"/></g>
<g><path style="opacity:0.129" fill="#070707" d="M 262.5,200.5 C 263.906,200.973 264.573,201.973 264.5,203.5C 263.094,203.027 262.427,202.027 262.5,200.5 Z"/></g>
<g><path style="opacity:0.127" fill="#080808" d="M 346.5,203.5 C 349.64,202.359 352.973,202.192 356.5,203C 357.056,203.383 357.389,203.883 357.5,204.5C 353.901,203.656 350.234,203.323 346.5,203.5 Z"/></g>
<g><path style="opacity:0.118" fill="#070808" d="M 389.5,202.5 C 385.03,203.486 380.363,203.819 375.5,203.5C 375.5,206.5 375.5,209.5 375.5,212.5C 374.521,209.375 374.187,206.042 374.5,202.5C 379.5,202.5 384.5,202.5 389.5,202.5 Z"/></g>
<g><path style="opacity:0.035" fill="#060606" d="M 438.5,203.5 C 435.098,203.342 431.764,203.676 428.5,204.5C 428.611,203.883 428.944,203.383 429.5,203C 432.696,202.195 435.696,202.362 438.5,203.5 Z"/></g>
<g><path style="opacity:0.118" fill="#090909" d="M 445.5,198.5 C 445.5,199.833 445.5,201.167 445.5,202.5C 448.713,202.19 451.713,202.523 454.5,203.5C 451.167,203.5 447.833,203.5 444.5,203.5C 444.216,201.585 444.549,199.919 445.5,198.5 Z"/></g>
<g><path style="opacity:0.114" fill="#090909" d="M 668.5,198.5 C 668.5,199.833 668.5,201.167 668.5,202.5C 671.713,202.19 674.713,202.523 677.5,203.5C 674.167,203.5 670.833,203.5 667.5,203.5C 667.216,201.585 667.549,199.919 668.5,198.5 Z"/></g>
<g><path style="opacity:0.04" fill="#050506" d="M 704.5,203.5 C 706.966,202.366 709.633,202.199 712.5,203C 713.056,203.383 713.389,203.883 713.5,204.5C 710.57,203.701 707.57,203.368 704.5,203.5 Z"/></g>
<g><path style="opacity:0.043" fill="#050505" d="M 817.5,203.5 C 814.098,203.342 810.764,203.676 807.5,204.5C 807.611,203.883 807.944,203.383 808.5,203C 811.696,202.195 814.696,202.362 817.5,203.5 Z"/></g>
<g><path style="opacity:0.089" fill="#050505" d="M 57.5,203.5 C 55.1667,203.5 52.8333,203.5 50.5,203.5C 50.5,211.167 50.5,218.833 50.5,226.5C 53.1667,226.5 55.8333,226.5 58.5,226.5C 55.7131,227.477 52.7131,227.81 49.5,227.5C 49.5,219.167 49.5,210.833 49.5,202.5C 52.3854,202.194 55.0521,202.527 57.5,203.5 Z"/></g>
<g><path style="opacity:0.032" fill="#060606" d="M 140.5,204.5 C 137.236,203.676 133.902,203.342 130.5,203.5C 130.5,206.833 130.5,210.167 130.5,213.5C 132.833,213.5 135.167,213.5 137.5,213.5C 135.052,214.473 132.385,214.806 129.5,214.5C 129.5,210.5 129.5,206.5 129.5,202.5C 132.85,202.335 136.183,202.502 139.5,203C 140.056,203.383 140.389,203.883 140.5,204.5 Z"/></g>
<g><path style="opacity:0.057" fill="#040404" d="M 225.5,203.5 C 223.167,203.5 220.833,203.5 218.5,203.5C 218.5,211.167 218.5,218.833 218.5,226.5C 221.167,226.5 223.833,226.5 226.5,226.5C 223.713,227.477 220.713,227.81 217.5,227.5C 217.5,219.167 217.5,210.833 217.5,202.5C 220.385,202.194 223.052,202.527 225.5,203.5 Z"/></g>
<g><path style="opacity:0.081" fill="#080808" d="M 258.5,204.5 C 255.236,203.676 251.902,203.342 248.5,203.5C 248.5,206.833 248.5,210.167 248.5,213.5C 250.833,213.5 253.167,213.5 255.5,213.5C 253.052,214.473 250.385,214.806 247.5,214.5C 247.5,210.5 247.5,206.5 247.5,202.5C 250.85,202.335 254.183,202.502 257.5,203C 258.056,203.383 258.389,203.883 258.5,204.5 Z"/></g>
<g><path style="opacity:0.008" fill="#060606" d="M 442.5,201.5 C 443.573,202.251 443.74,203.251 443,204.5C 441.708,205.791 440.542,205.791 439.5,204.5C 441.5,204.5 442.5,203.5 442.5,201.5 Z"/></g>
<g><path style="opacity:0.263" fill="#080808" d="M 502.5,203.5 C 504.5,203.5 505.5,204.5 505.5,206.5C 504.167,205.833 503.167,204.833 502.5,203.5 Z"/></g>
<g><path style="opacity:0.029" fill="#060606" d="M 580.5,201.5 C 580.267,204.542 579.267,207.208 577.5,209.5C 577.733,206.458 578.733,203.792 580.5,201.5 Z"/></g>
<g><path style="opacity:0.318" fill="#0b0c0c" d="M 59.5,204.5 C 61.5,204.5 62.5,205.5 62.5,207.5C 61.1667,206.833 60.1667,205.833 59.5,204.5 Z"/></g>
<g><path style="opacity:0.231" fill="#0d0d0d" d="M 304.5,202.5 C 304.573,204.027 303.906,205.027 302.5,205.5C 302.427,203.973 303.094,202.973 304.5,202.5 Z"/></g>
<g><path style="opacity:0.004" fill="#040404" d="M 311.5,203.5 C 310.5,205.167 309.167,206.5 307.5,207.5C 307.833,205.167 309.167,203.833 311.5,203.5 Z"/></g>
<g><path style="opacity:0.027" fill="#080808" d="M 323.5,200.5 C 325.344,201.204 325.844,202.537 325,204.5C 323.708,205.791 322.542,205.791 321.5,204.5C 324.336,204.163 325.002,202.829 323.5,200.5 Z"/></g>
<g><path style="opacity:0.015" fill="#010101" d="M 459.5,204.5 C 460.494,213.652 460.827,222.985 460.5,232.5C 458.265,232.795 456.265,232.461 454.5,231.5C 456.167,231.5 457.833,231.5 459.5,231.5C 459.5,222.5 459.5,213.5 459.5,204.5 Z"/></g>
<g><path style="opacity:0.165" fill="#0b0b0b" d="M 697.5,202.5 C 697.573,204.027 696.906,205.027 695.5,205.5C 695.427,203.973 696.094,202.973 697.5,202.5 Z"/></g>
<g><path style="opacity:0.106" fill="#080808" d="M 742.5,203.5 C 739.5,203.5 736.5,203.5 733.5,203.5C 733.5,206.833 733.5,210.167 733.5,213.5C 735.833,213.5 738.167,213.5 740.5,213.5C 738.052,214.473 735.385,214.806 732.5,214.5C 732.5,210.5 732.5,206.5 732.5,202.5C 736.042,202.187 739.375,202.521 742.5,203.5 Z"/></g>
<g><path style="opacity:0.345" fill="#0b0b0b" d="M 801.5,203.5 C 801.573,205.027 800.906,206.027 799.5,206.5C 799.427,204.973 800.094,203.973 801.5,203.5 Z"/></g>
<g><path style="opacity:0.159" fill="#090909" d="M 817.5,203.5 C 818.833,203.833 820.167,204.167 821.5,204.5C 819.872,205.853 818.538,205.519 817.5,203.5 Z"/></g>
<g><path style="opacity:0.027" fill="#060606" d="M 31.5,200.5 C 33.4725,203.084 34.4725,206.084 34.5,209.5C 32.9281,206.785 31.9281,203.785 31.5,200.5 Z"/></g>
<g><path style="opacity:0.016" fill="#040505" d="M 603.5,203.5 C 602.833,204.833 601.833,205.833 600.5,206.5C 600.5,204.5 601.5,203.5 603.5,203.5 Z"/></g>
<g><path style="opacity:0.012" fill="#000100" d="M 798.5,206.5 C 797.833,205.167 797.833,205.167 798.5,206.5 Z"/></g>
<g><path style="opacity:0.025" fill="#050505" d="M 619.5,205.5 C 621.213,206.635 621.88,208.302 621.5,210.5C 620.463,209.07 619.796,207.403 619.5,205.5 Z"/></g>
<g><path style="opacity:0.004" fill="#020202" d="M 682.5,206.5 C 683.656,214.323 683.823,222.323 683,230.5C 680.189,232.18 678.356,231.513 677.5,228.5C 679.042,229.301 680.708,229.634 682.5,229.5C 682.5,221.833 682.5,214.167 682.5,206.5 Z"/></g>
<g><path style="opacity:0.051" fill="#070707" d="M 742.5,203.5 C 744.95,203.874 745.95,205.374 745.5,208C 745.693,210.008 745.026,211.508 743.5,212.5C 745.107,209.222 744.773,206.222 742.5,203.5 Z"/></g>
<g><path style="opacity:0.141" fill="#080809" d="M 406.5,210.5 C 405.9,209.1 404.9,208.1 403.5,207.5C 403.312,205.897 403.812,204.563 405,203.5C 405.977,205.74 406.477,208.073 406.5,210.5 Z"/></g>
<g><path style="opacity:0.066" fill="#050505" d="M 565.5,212.5 C 565.6,218.954 565.267,225.621 564.5,232.5C 562.585,232.784 560.919,232.451 559.5,231.5C 560.833,231.5 562.167,231.5 563.5,231.5C 563.334,223.16 563.5,214.827 564,206.5C 564.813,208.436 565.313,210.436 565.5,212.5 Z"/></g>
<g><path style="opacity:0.122" fill="#090909" d="M 777.5,205.5 C 778.906,205.973 779.573,206.973 779.5,208.5C 778.094,208.027 777.427,207.027 777.5,205.5 Z"/></g>
<g><path style="opacity:0.375" fill="#121212" d="M 587.5,231.5 C 585.833,232.833 584.167,232.833 582.5,231.5C 582.5,225.167 582.5,218.833 582.5,212.5C 582.672,211.508 582.338,210.842 581.5,210.5C 581.709,209.078 582.209,207.745 583,206.5C 583.5,214.827 583.666,223.16 583.5,231.5C 584.833,231.5 586.167,231.5 587.5,231.5 Z"/></g>
<g><path style="opacity:0.035" fill="#090909" d="M 72.5,207.5 C 73.7384,209.214 74.405,211.214 74.5,213.5C 72.9261,211.898 72.2594,209.898 72.5,207.5 Z"/></g>
<g><path style="opacity:0.216" fill="#0a0a0a" d="M 426.5,207.5 C 426.204,209.403 425.537,211.07 424.5,212.5C 424.12,210.302 424.787,208.635 426.5,207.5 Z"/></g>
<g><path style="opacity:0.004" fill="#000000" d="M 785.5,209.5 C 786.833,210.167 786.833,210.167 785.5,209.5 Z"/></g>
<g><path style="opacity:0.141" fill="#0b0b0b" d="M 62.5,207.5 C 64.0173,209.462 64.6839,211.795 64.5,214.5C 64.4932,216.369 64.1599,218.036 63.5,219.5C 63.6054,215.452 63.2721,211.452 62.5,207.5 Z"/></g>
<g><path style="opacity:0.057" fill="#070707" d="M 491.5,206.5 C 490.167,212.167 490.167,217.833 491.5,223.5C 490.778,223.082 490.278,222.416 490,221.5C 489.333,217.167 489.333,212.833 490,208.5C 490.278,207.584 490.778,206.918 491.5,206.5 Z"/></g>
<g><path style="opacity:0.024" fill="#040404" d="M 721.5,207.5 C 723.441,211.069 723.774,214.735 722.5,218.5C 722.276,214.821 721.942,211.154 721.5,207.5 Z"/></g>
<g><path style="opacity:0.337" fill="#111111" d="M 774.5,209.5 C 773.508,216.982 773.175,224.648 773.5,232.5C 771.585,232.784 769.919,232.451 768.5,231.5C 769.833,231.5 771.167,231.5 772.5,231.5C 772.334,223.16 772.5,214.827 773,206.5C 774.039,207.244 774.539,208.244 774.5,209.5 Z"/></g>
<g><path style="opacity:0.045" fill="#050505" d="M 780.5,210.5 C 781.906,210.973 782.573,211.973 782.5,213.5C 781.094,213.027 780.427,212.027 780.5,210.5 Z"/></g>
<g><path style="opacity:0.004" fill="#000000" d="M 804.5,211.5 C 805.833,212.167 805.833,212.167 804.5,211.5 Z"/></g>
<g><path style="opacity:0.006" fill="#000000" d="M 581.5,211.5 C 581.5,212.167 581.833,212.5 582.5,212.5C 582.5,218.833 582.5,225.167 582.5,231.5C 581.833,225.5 581.167,219.5 580.5,213.5C 580.328,212.508 580.662,211.842 581.5,211.5 Z"/></g>
<g><path style="opacity:0.251" fill="#0e0e0f" d="M 600.5,206.5 C 598.936,210.674 598.269,215.007 598.5,219.5C 597.362,216.696 597.195,213.696 598,210.5C 598.2,208.68 599.034,207.347 600.5,206.5 Z"/></g>
<g><path style="opacity:0.082" fill="#070707" d="M 633.5,210.5 C 634.906,210.973 635.573,211.973 635.5,213.5C 634.094,213.027 633.427,212.027 633.5,210.5 Z"/></g>
<g><path style="opacity:0.004" fill="#000000" d="M 808.5,212.5 C 809.833,213.167 809.833,213.167 808.5,212.5 Z"/></g>
<g><path style="opacity:0.024" fill="#050506" d="M 92.5,211.5 C 92.7406,213.898 92.0739,215.898 90.5,217.5C 90.595,215.214 91.2616,213.214 92.5,211.5 Z"/></g>
<g><path style="opacity:0.008" fill="#060606" d="M 146.5,212.5 C 146.573,214.027 145.906,215.027 144.5,215.5C 144.427,213.973 145.094,212.973 146.5,212.5 Z"/></g>
<g><path style="opacity:0.012" fill="#060606" d="M 264.5,212.5 C 264.573,214.027 263.906,215.027 262.5,215.5C 262.427,213.973 263.094,212.973 264.5,212.5 Z"/></g>
<g><path style="opacity:0.004" fill="#050505" d="M 363.5,212.5 C 363.573,214.027 362.906,215.027 361.5,215.5C 361.427,213.973 362.094,212.973 363.5,212.5 Z"/></g>
<g><path style="opacity:0.075" fill="#070707" d="M 525.5,211.5 C 526.906,211.973 527.573,212.973 527.5,214.5C 526.094,214.027 525.427,213.027 525.5,211.5 Z"/></g>
<g><path style="opacity:0.098" fill="#050505" d="M 627.5,198.5 C 627.5,209.5 627.5,220.5 627.5,231.5C 628.833,231.5 630.167,231.5 631.5,231.5C 631.5,225.167 631.5,218.833 631.5,212.5C 632.491,218.979 632.824,225.646 632.5,232.5C 630.5,232.5 628.5,232.5 626.5,232.5C 626.172,220.988 626.505,209.654 627.5,198.5 Z"/></g>
<g><path style="opacity:0.004" fill="#000000" d="M 725.5,213.5 C 726.833,214.167 726.833,214.167 725.5,213.5 Z"/></g>
<g><path style="opacity:0.042" fill="#020202" d="M 812.5,214.5 C 816.298,213.517 820.298,213.183 824.5,213.5C 824.821,218.695 824.487,223.695 823.5,228.5C 823.5,223.833 823.5,219.167 823.5,214.5C 819.833,214.5 816.167,214.5 812.5,214.5 Z"/></g>
<g><path style="opacity:0.004" fill="#000000" d="M 535.5,215.5 C 536.833,216.167 536.833,216.167 535.5,215.5 Z"/></g>
<g><path style="opacity:0.043" fill="#050505" d="M 565.5,212.5 C 566.674,213.514 567.34,214.847 567.5,216.5C 565.896,215.713 565.229,214.38 565.5,212.5 Z"/></g>
<g><path style="opacity:0.046" fill="#040404" d="M 798.5,206.5 C 798.833,206.5 799.167,206.5 799.5,206.5C 797.965,212.946 798.299,219.28 800.5,225.5C 799.034,224.653 798.2,223.32 798,221.5C 797.274,216.448 797.441,211.448 798.5,206.5 Z"/></g>
<g><path style="opacity:0.039" fill="#060606" d="M 142.5,216.5 C 141.89,217.391 141.557,218.391 141.5,219.5C 140.115,218.053 140.448,217.053 142.5,216.5 Z"/></g>
<g><path style="opacity:0.039" fill="#060606" d="M 260.5,216.5 C 259.89,217.391 259.557,218.391 259.5,219.5C 258.115,218.053 258.448,217.053 260.5,216.5 Z"/></g>
<g><path style="opacity:0.035" fill="#070707" d="M 747.5,215.5 C 746.211,216.637 745.211,217.97 744.5,219.5C 743.366,217.04 744.366,215.707 747.5,215.5 Z"/></g>
<g><path style="opacity:0.264" fill="#0f0f0f" d="M 24.5,215.5 C 25.1522,216.725 26.3189,217.392 28,217.5C 29.3847,217.486 30.5514,217.152 31.5,216.5C 32.0431,216.56 32.3764,216.893 32.5,217.5C 29.5719,218.484 26.5719,218.817 23.5,218.5C 23.2627,217.209 23.596,216.209 24.5,215.5 Z"/></g>
<g><path style="opacity:0.029" fill="#060606" d="M 35.5,212.5 C 37.9351,216.799 39.6018,221.466 40.5,226.5C 38.0649,222.201 36.3982,217.534 35.5,212.5 Z"/></g>
<g><path style="opacity:0.246" fill="#0d0d0e" d="M 407.5,213.5 C 408.339,214.641 409.006,215.974 409.5,217.5C 406.355,218.803 403.355,218.803 400.5,217.5C 402.833,217.5 405.167,217.5 407.5,217.5C 407.5,216.167 407.5,214.833 407.5,213.5 Z"/></g>
<g><path style="opacity:0.046" fill="#050505" d="M 575.5,215.5 C 575.481,217.06 575.148,218.56 574.5,220C 573.969,221.718 573.302,221.885 572.5,220.5C 573.313,218.739 574.313,217.072 575.5,215.5 Z"/></g>
<g><path style="opacity:0.029" fill="#040404" d="M 812.5,214.5 C 812.232,216.099 812.566,217.432 813.5,218.5C 813.44,219.043 813.107,219.376 812.5,219.5C 811.212,217.701 811.212,216.035 812.5,214.5 Z"/></g>
<g><path style="opacity:0.036" fill="#050505" d="M 134.5,218.5 C 133.167,218.5 131.833,218.5 130.5,218.5C 130.818,223.032 130.485,227.366 129.5,231.5C 129.5,226.833 129.5,222.167 129.5,217.5C 131.415,217.216 133.081,217.549 134.5,218.5 Z"/></g>
<g><path style="opacity:0.076" fill="#070707" d="M 252.5,218.5 C 251.167,218.5 249.833,218.5 248.5,218.5C 248.5,223.167 248.5,227.833 248.5,232.5C 246.265,232.795 244.265,232.461 242.5,231.5C 244.167,231.5 245.833,231.5 247.5,231.5C 247.5,226.833 247.5,222.167 247.5,217.5C 249.415,217.216 251.081,217.549 252.5,218.5 Z"/></g>
<g><path style="opacity:0.004" fill="#000000" d="M 565.5,218.5 C 566.833,219.167 566.833,219.167 565.5,218.5 Z"/></g>
<g><path style="opacity:0.105" fill="#090909" d="M 728.5,198.5 C 728.5,209.5 728.5,220.5 728.5,231.5C 729.833,231.5 731.167,231.5 732.5,231.5C 732.5,226.833 732.5,222.167 732.5,217.5C 734.527,217.338 736.527,217.505 738.5,218C 739.252,218.671 739.586,219.504 739.5,220.5C 737.84,218.752 735.84,218.252 733.5,219C 733.619,223.288 733.619,227.788 733.5,232.5C 731.5,232.5 729.5,232.5 727.5,232.5C 727.172,220.988 727.505,209.654 728.5,198.5 Z"/></g>
<g><path style="opacity:0.043" fill="#060606" d="M 784.5,217.5 C 785.906,217.973 786.573,218.973 786.5,220.5C 785.094,220.027 784.427,219.027 784.5,217.5 Z"/></g>
<g><path style="opacity:0.243" fill="#0b0b0b" d="M 164.5,218.5 C 166.5,218.5 167.5,219.5 167.5,221.5C 166.167,220.833 165.167,219.833 164.5,218.5 Z"/></g>
<g><path style="opacity:0.004" fill="#000000" d="M 349.5,219.5 C 350.833,220.167 350.833,220.167 349.5,219.5 Z"/></g>
<g><path style="opacity:0.44" fill="#141415" d="M 524.5,209.5 C 523.508,216.982 523.175,224.648 523.5,232.5C 521.585,232.784 519.919,232.451 518.5,231.5C 519.833,231.5 521.167,231.5 522.5,231.5C 522.334,222.827 522.5,214.16 523,205.5C 523.791,206.745 524.291,208.078 524.5,209.5 Z"/></g>
<g><path style="opacity:0.029" fill="#050505" d="M 621.5,218.5 C 621.829,221.228 621.163,223.562 619.5,225.5C 619.721,222.933 620.388,220.599 621.5,218.5 Z"/></g>
<g><path style="opacity:0.016" fill="#050505" d="M 568.5,219.5 C 569.738,221.214 570.405,223.214 570.5,225.5C 568.926,223.898 568.259,221.898 568.5,219.5 Z"/></g>
<g><path style="opacity:0.02" fill="#050505" d="M 739.5,220.5 C 740.674,221.514 741.34,222.847 741.5,224.5C 739.896,223.713 739.229,222.38 739.5,220.5 Z"/></g>
<g><path style="opacity:0.063" fill="#070707" d="M 167.5,221.5 C 168.93,223.455 168.597,225.121 166.5,226.5C 167.038,224.883 167.371,223.216 167.5,221.5 Z"/></g>
<g><path style="opacity:0.004" fill="#000000" d="M 748.5,223.5 C 749.833,224.167 749.833,224.167 748.5,223.5 Z"/></g>
<g><path style="opacity:0.192" fill="#080808" d="M 62.5,222.5 C 62.1667,224.833 60.8333,226.167 58.5,226.5C 59.5,224.833 60.8333,223.5 62.5,222.5 Z"/></g>
<g><path style="opacity:0.216" fill="#0a0a0a" d="M 230.5,222.5 C 230.167,224.833 228.833,226.167 226.5,226.5C 227.5,224.833 228.833,223.5 230.5,222.5 Z"/></g>
<g><path style="opacity:0.318" fill="#0a0a0a" d="M 426.5,223.5 C 428.191,224.864 429.858,226.197 431.5,227.5C 428.633,227.631 426.967,226.297 426.5,223.5 Z"/></g>
<g><path style="opacity:0.306" fill="#0a0a0a" d="M 491.5,223.5 C 494.781,227.32 498.781,228.32 503.5,226.5C 501.205,228.385 498.538,228.885 495.5,228C 493.249,227.252 491.916,225.752 491.5,223.5 Z"/></g>
<g><path style="opacity:0.114" fill="#070707" d="M 506.5,222.5 C 506.573,224.027 505.906,225.027 504.5,225.5C 504.427,223.973 505.094,222.973 506.5,222.5 Z"/></g>
<g><path style="opacity:0.129" fill="#070707" d="M 599.5,222.5 C 600.906,222.973 601.573,223.973 601.5,225.5C 600.094,225.027 599.427,224.027 599.5,222.5 Z"/></g>
<g><path style="opacity:0.282" fill="#090909" d="M 805.5,223.5 C 806.833,224.167 807.833,225.167 808.5,226.5C 806.5,226.5 805.5,225.5 805.5,223.5 Z"/></g>
<g><path style="opacity:0.153" fill="#0a0a0a" d="M 143.5,223.5 C 144.906,223.973 145.573,224.973 145.5,226.5C 144.094,226.027 143.427,225.027 143.5,223.5 Z"/></g>
<g><path style="opacity:0.231" fill="#070707" d="M 153.5,224.5 C 151.738,225.262 150.738,226.596 150.5,228.5C 149.13,226.293 149.797,224.626 152.5,223.5C 153.107,223.624 153.44,223.957 153.5,224.5 Z"/></g>
<g><path style="opacity:0.145" fill="#0a0a0a" d="M 261.5,223.5 C 262.906,223.973 263.573,224.973 263.5,226.5C 262.094,226.027 261.427,225.027 261.5,223.5 Z"/></g>
<g><path style="opacity:0.016" fill="#090909" d="M 410.5,222.5 C 411.924,224.515 412.59,226.848 412.5,229.5C 411.076,227.485 410.41,225.152 410.5,222.5 Z"/></g>
<g><path style="opacity:0.263" fill="#0a0a0a" d="M 442.5,225.5 C 441.167,225.833 439.833,226.167 438.5,226.5C 439.538,224.481 440.872,224.147 442.5,225.5 Z"/></g>
<g><path style="opacity:0.052" fill="#040404" d="M 442.5,225.5 C 444.552,226.053 444.885,227.053 443.5,228.5C 443.443,227.391 443.11,226.391 442.5,225.5 Z"/></g>
<g><path style="opacity:0.329" fill="#0d0d0d" d="M 614.5,223.5 C 614.033,226.297 612.367,227.631 609.5,227.5C 611.142,226.197 612.809,224.864 614.5,223.5 Z"/></g>
<g><path style="opacity:0.018" fill="#040405" d="M 116.5,216.5 C 112.702,217.483 108.702,217.817 104.5,217.5C 104.5,220.5 104.5,223.5 104.5,226.5C 109.944,225.892 114.944,226.558 119.5,228.5C 114.26,227.551 108.927,227.218 103.5,227.5C 103.5,223.833 103.5,220.167 103.5,216.5C 107.833,216.5 112.167,216.5 116.5,216.5 Z"/></g>
<g><path style="opacity:0.017" fill="#040404" d="M 195.5,216.5 C 191.702,217.483 187.702,217.817 183.5,217.5C 183.5,220.5 183.5,223.5 183.5,226.5C 188.363,226.181 193.03,226.514 197.5,227.5C 192.5,227.5 187.5,227.5 182.5,227.5C 182.5,223.833 182.5,220.167 182.5,216.5C 186.833,216.5 191.167,216.5 195.5,216.5 Z"/></g>
<g><path style="opacity:0.349" fill="#0b0b0b" d="M 321.5,225.5 C 321.179,227.048 320.179,227.715 318.5,227.5C 319.29,226.599 320.29,225.932 321.5,225.5 Z"/></g>
<g><path style="opacity:0.02" fill="#020202" d="M 386.5,216.5 C 383.038,217.482 379.371,217.815 375.5,217.5C 375.5,220.5 375.5,223.5 375.5,226.5C 380.363,226.181 385.03,226.514 389.5,227.5C 384.5,227.5 379.5,227.5 374.5,227.5C 374.5,223.833 374.5,220.167 374.5,216.5C 378.5,216.5 382.5,216.5 386.5,216.5 Z"/></g>
<g><path style="opacity:0.029" fill="#070807" d="M 570.5,225.5 C 571.401,226.29 572.068,227.29 572.5,228.5C 570.952,228.179 570.285,227.179 570.5,225.5 Z"/></g>
<g><path style="opacity:0.147" fill="#090909" d="M 310.5,226.5 C 313.127,227.092 315.794,227.425 318.5,227.5C 315.66,228.917 312.993,228.584 310.5,226.5 Z"/></g>
<g><path style="opacity:0.192" fill="#0c0c0c" d="M 361.5,225.5 C 362.906,225.973 363.573,226.973 363.5,228.5C 362.094,228.027 361.427,227.027 361.5,225.5 Z"/></g>
<g><path style="opacity:0.14" fill="#090909" d="M 602.5,226.5 C 604.806,226.993 607.139,227.326 609.5,227.5C 606.988,228.867 604.655,228.534 602.5,226.5 Z"/></g>
<g><path style="opacity:0.141" fill="#080808" d="M 712.5,226.5 C 710.345,228.534 708.012,228.867 705.5,227.5C 707.861,227.326 710.194,226.993 712.5,226.5 Z"/></g>
<g><path style="opacity:0.004" fill="#060606" d="M 719.5,226.5 C 719.573,228.027 718.906,229.027 717.5,229.5C 717.427,227.973 718.094,226.973 719.5,226.5 Z"/></g>
<g><path style="opacity:0.144" fill="#090909" d="M 818.5,226.5 C 816.007,228.584 813.34,228.917 810.5,227.5C 813.206,227.425 815.873,227.092 818.5,226.5 Z"/></g>
<g><path style="opacity:0.004" fill="#000000" d="M 509.5,228.5 C 510.833,229.167 510.833,229.167 509.5,228.5 Z"/></g>
<g><path style="opacity:0.047" fill="#050505" d="M 742.5,226.5 C 743.906,226.973 744.573,227.973 744.5,229.5C 743.094,229.027 742.427,228.027 742.5,226.5 Z"/></g>
<g><path style="opacity:0.154" fill="#0a0a0a" d="M 15.5,227.5 C 15.5,228.833 15.5,230.167 15.5,231.5C 16.8333,231.5 18.1667,231.5 19.5,231.5C 17.4833,232.874 15.4833,232.707 13.5,231C 14.0848,229.698 14.7515,228.531 15.5,227.5 Z"/></g>
<g><path style="opacity:0.138" fill="#080808" d="M 86.5,230.5 C 86.0296,231.693 85.0296,232.36 83.5,232.5C 82.2739,232.48 81.2739,232.147 80.5,231.5C 82.6208,231.675 84.6208,231.341 86.5,230.5 Z"/></g>
<g><path style="opacity:0.144" fill="#070707" d="M 146.5,228.5 C 148.104,229.287 148.771,230.62 148.5,232.5C 146.265,232.795 144.265,232.461 142.5,231.5C 144.199,231.66 145.866,231.494 147.5,231C 146.748,230.329 146.414,229.496 146.5,228.5 Z"/></g>
<g><path style="opacity:0.141" fill="#070707" d="M 264.5,228.5 C 266.104,229.287 266.771,230.62 266.5,232.5C 264.265,232.795 262.265,232.461 260.5,231.5C 262.199,231.66 263.866,231.494 265.5,231C 264.748,230.329 264.414,229.496 264.5,228.5 Z"/></g>
<g><path style="opacity:0.144" fill="#070707" d="M 364.5,230.5 C 365.043,230.56 365.376,230.893 365.5,231.5C 363.364,232.793 361.364,232.793 359.5,231.5C 361.415,231.784 363.081,231.451 364.5,230.5 Z"/></g>
<g><path style="opacity:0.138" fill="#050505" d="M 389.5,227.5 C 390.167,228.167 390.833,228.833 391.5,229.5C 392.607,231.847 394.274,232.18 396.5,230.5C 394.643,232.845 392.31,233.178 389.5,231.5C 389.5,230.167 389.5,228.833 389.5,227.5 Z"/></g>
<g><path style="opacity:0.148" fill="#090909" d="M 417.5,227.5 C 418.451,228.919 418.784,230.585 418.5,232.5C 416.5,232.5 414.5,232.5 412.5,232.5C 412.5,231.5 412.5,230.5 412.5,229.5C 413.779,230.968 415.446,231.635 417.5,231.5C 417.5,230.167 417.5,228.833 417.5,227.5 Z"/></g>
<g><path style="opacity:0.146" fill="#070707" d="M 750.5,229.5 C 751.404,230.209 751.737,231.209 751.5,232.5C 749.265,232.795 747.265,232.461 745.5,231.5C 747.781,231.923 749.448,231.256 750.5,229.5 Z"/></g>
</svg>
