<?xml version="1.0" encoding="UTF-8"?>
<!DOCTYPE svg PUBLIC "-//W3C//DTD SVG 1.1//EN" "http://www.w3.org/Graphics/SVG/1.1/DTD/svg11.dtd">
<svg xmlns="http://www.w3.org/2000/svg" version="1.1" width="294px" height="297px" style="shape-rendering:geometricPrecision; text-rendering:geometricPrecision; image-rendering:optimizeQuality; fill-rule:evenodd; clip-rule:evenodd" xmlns:xlink="http://www.w3.org/1999/xlink">
<g><path style="opacity:1" fill="#fcfdfd" d="M -0.5,-0.5 C 97.5,-0.5 195.5,-0.5 293.5,-0.5C 293.5,98.5 293.5,197.5 293.5,296.5C 195.5,296.5 97.5,296.5 -0.5,296.5C -0.5,197.5 -0.5,98.5 -0.5,-0.5 Z"/></g>
<g><path style="opacity:1" fill="#7a7b7e" d="M 158.5,35.5 C 155.216,37.117 152.549,39.4503 150.5,42.5C 148.871,41.3747 147.371,40.0414 146,38.5C 144.961,39.7101 143.794,40.7101 142.5,41.5C 140.271,39.4105 138.105,37.0772 136,34.5C 135.329,35.2524 134.496,35.5858 133.5,35.5C 136.641,31.016 140.641,27.6826 145.5,25.5C 150.957,27.2803 155.29,30.6136 158.5,35.5 Z"/></g>
<g><path style="opacity:1" fill="#5a5c60" d="M 142.5,41.5 C 133.702,50.7984 124.702,59.965 115.5,69C 108.943,70.5863 102.276,70.9196 95.5,70C 91.9905,66.952 91.6572,63.6187 94.5,60C 99.5,59.6667 104.5,59.3333 109.5,59C 117.368,50.9642 125.368,43.1309 133.5,35.5C 134.496,35.5858 135.329,35.2524 136,34.5C 138.105,37.0772 140.271,39.4105 142.5,41.5 Z"/></g>
<g><path style="opacity:1" fill="#5a5b5f" d="M 158.5,35.5 C 166.632,43.1309 174.632,50.9642 182.5,59C 198.833,59.3333 215.167,59.6667 231.5,60C 232,60.5 232.5,61 233,61.5C 233.333,77.8333 233.667,94.1667 234,110.5C 245,121.5 256,132.5 267,143.5C 267.938,146.88 267.271,149.88 265,152.5C 254.986,162.681 244.819,172.681 234.5,182.5C 233.82,199.201 233.153,215.867 232.5,232.5C 231.975,233.192 231.308,233.692 230.5,234C 224.167,234.667 217.833,234.667 211.5,234C 208.657,230.381 208.99,227.048 212.5,224C 215.817,223.502 219.15,223.335 222.5,223.5C 222.333,208.496 222.5,193.496 223,178.5C 233.5,168 244,157.5 254.5,147C 243.637,136.471 233.137,125.637 223,114.5C 222.5,99.8371 222.333,85.1705 222.5,70.5C 207.496,70.6666 192.496,70.4999 177.5,70C 168.298,60.965 159.298,51.7984 150.5,42.5C 152.549,39.4503 155.216,37.117 158.5,35.5 Z"/></g>
<g><path style="opacity:1" fill="#595b5f" d="M 60.5,59.5 C 68.5069,59.3336 76.5069,59.5003 84.5,60C 88.5661,63.7448 88.2327,67.0782 83.5,70C 78.8452,70.4992 74.1785,70.6658 69.5,70.5C 69.6666,85.1705 69.4999,99.8371 69,114.5C 58.8634,125.637 48.3634,136.471 37.5,147C 48,157.5 58.5,168 69,178.5C 69.4999,193.496 69.6666,208.496 69.5,223.5C 84.1705,223.333 98.8371,223.5 113.5,224C 124.637,234.137 135.471,244.637 146,255.5C 156.529,244.637 167.363,234.137 178.5,224C 184.833,223.333 191.167,223.333 197.5,224C 201.01,227.048 201.343,230.381 198.5,234C 192.804,234.17 187.138,234.67 181.5,235.5C 171.014,246.486 160.348,257.319 149.5,268C 147.167,268.667 144.833,268.667 142.5,268C 131.652,257.319 120.986,246.486 110.5,235.5C 93.6028,234.827 76.7694,234.16 60,233.5C 58.8603,216.581 58.027,199.581 57.5,182.5C 47.1808,172.681 37.0141,162.681 27,152.5C 24.729,149.88 24.0623,146.88 25,143.5C 36,132.5 47,121.5 58,110.5C 58.3333,94.1667 58.6667,77.8333 59,61.5C 59.7172,60.9558 60.2172,60.2891 60.5,59.5 Z"/></g>
<g><path style="opacity:1" fill="#585a5e" d="M 81.5,121.5 C 82.1855,109.598 82.8522,97.5984 83.5,85.5C 83.6107,84.8826 83.944,84.3826 84.5,84C 96.5139,83.8326 108.514,83.3326 120.5,82.5C 127.319,75.181 134.319,68.0144 141.5,61C 144.5,59 147.5,59 150.5,61C 157.681,68.0144 164.681,75.181 171.5,82.5C 183.915,83.038 196.248,83.8714 208.5,85C 209.157,97.1048 209.824,109.271 210.5,121.5C 218.152,128.652 225.652,135.985 233,143.5C 233.167,144.5 233.333,145.5 233.5,146.5C 233.033,149.148 231.866,151.481 230,153.5C 223.652,160.015 217.152,166.348 210.5,172.5C 209.814,184.532 209.148,196.532 208.5,208.5C 207.975,209.192 207.308,209.692 206.5,210C 201.167,210.667 195.833,210.667 190.5,210C 186.5,206.667 186.5,203.333 190.5,200C 193.146,199.503 195.813,199.336 198.5,199.5C 198.334,189.161 198.5,178.828 199,168.5C 206.167,161.333 213.333,154.167 220.5,147C 212.969,139.803 205.802,132.303 199,124.5C 198.5,114.506 198.334,104.506 198.5,94.5C 188.161,94.6665 177.828,94.4998 167.5,94C 160.333,86.8333 153.167,79.6667 146,72.5C 138.803,80.0314 131.303,87.1981 123.5,94C 113.506,94.4998 103.506,94.6665 93.5,94.5C 93.6665,104.506 93.4998,114.506 93,124.5C 86.1981,132.303 79.0314,139.803 71.5,147C 78.6667,154.167 85.8333,161.333 93,168.5C 93.4998,178.828 93.6665,189.161 93.5,199.5C 103.506,199.334 113.506,199.5 123.5,200C 131.303,206.802 138.803,213.969 146,221.5C 153.167,214.333 160.333,207.167 167.5,200C 172.167,199.333 176.833,199.333 181.5,200C 186.395,202.823 186.729,206.157 182.5,210C 178.789,210.175 175.122,210.675 171.5,211.5C 164.709,218.792 157.709,225.959 150.5,233C 147.5,235 144.5,235 141.5,233C 134.08,225.917 127.08,218.583 120.5,211C 108.833,210.667 97.1667,210.333 85.5,210C 84.6667,209.167 83.8333,208.333 83,207.5C 82.8325,195.819 82.3325,184.152 81.5,172.5C 74.236,164.734 66.736,157.068 59,149.5C 58.2937,147.029 58.627,144.695 60,142.5C 67.0351,135.297 74.2018,128.297 81.5,121.5 Z"/></g>
<g><path style="opacity:1" fill="#dbdcdd" d="M 83.5,85.5 C 82.8522,97.5984 82.1855,109.598 81.5,121.5C 80.8542,109.12 81.5209,97.1201 83.5,85.5 Z"/></g>
</svg>
